<?xml version="1.0" encoding="utf-8"?>
<!-- Generator: Adobe Illustrator 16.0.0, SVG Export Plug-In . SVG Version: 6.00 Build 0)  -->
<!DOCTYPE svg PUBLIC "-//W3C//DTD SVG 1.1//EN" "http://www.w3.org/Graphics/SVG/1.1/DTD/svg11.dtd">
<svg version="1.1" xmlns="http://www.w3.org/2000/svg" xmlns:xlink="http://www.w3.org/1999/xlink" x="0px" y="0px"
	 width="114.528px" height="125.799px" viewBox="0 0 114.528 125.799" enable-background="new 0 0 114.528 125.799"
	 xml:space="preserve">
<g id="Layer_1">
	<g id="UN_2_">
		<g>
			<path id="path1989_2_" fill="#FFFFFF" d="M88.502,80.432c-2.835,0.763-5.779,0.98-8.505,1.962
				c4.58-3.925,4.361-10.03,7.414-14.61c0.98-1.308,1.744-2.726,2.943-3.925c-1.853,3.707-1.09,8.613-3.161,12.212
				c-0.872,1.417-1.963,2.834-3.271,3.925c0.437,0,0.764-0.437,1.199-0.654c3.49-3.489,7.96-4.471,11.776-7.196
				c1.525-1.199,2.834-2.726,3.488-4.471C99.622,73.344,93.953,78.796,88.502,80.432L88.502,80.432z"/>
			<path id="path1991_2_" fill="#FFFFFF" d="M101.04,57.208c-1.744,2.398-3.707,4.688-5.343,7.086
				c0.218-1.962,0.437-4.36-0.327-6.215c-1.308-3.924-2.508-7.959-2.834-12.32v-1.635c0.98,4.47,5.342,7.523,5.124,12.539
				c0.108,1.199-0.327,2.289-0.546,3.271l0.109,0.108l0.218-0.218c0.655-2.398,0.981-5.016,1.963-7.306
				c1.418-3.271,3.271-6.65,2.508-10.575C104.093,46.632,103.438,52.847,101.04,57.208L101.04,57.208z"/>
			<path id="path1993_2_" fill="#FFFFFF" d="M98.423,32.021c2.836,3.925,3.489,10.031,1.418,14.501
				c-0.763,1.854-1.31,3.926-1.636,5.996c-0.108-0.326-0.218-0.871-0.327-1.199c-1.09-4.361-5.233-7.414-6.978-11.557
				c-0.546-1.309-0.981-2.727-1.199-4.144c1.854,3.381,6.323,5.125,7.522,8.723c0.545,0.981,0.437,2.071,0.764,3.053
				c0.109,0,0.109,0,0.109-0.108c-0.546-3.816-0.328-7.742,0.108-11.558c0-2.072-0.218-4.034-1.308-5.561
				C97.551,30.604,97.878,31.367,98.423,32.021L98.423,32.021z"/>
			<path id="path1995_2_" fill="#FFFFFF" d="M96.352,31.258c0.763,3.381-0.327,6.76,0.327,10.14l0,0
				c-1.854-3.598-5.778-5.342-8.504-8.285c-1.527-1.745-2.29-3.817-2.617-6.106c1.526,3.707,5.778,4.579,8.178,7.741
				c0.763,0.764,1.09,1.745,1.635,2.508l0.109-0.109c-1.417-2.943-1.854-6.214-2.835-9.376c-0.437-1.309-1.417-2.726-2.726-3.599
				C92.973,24.935,95.697,28.205,96.352,31.258L96.352,31.258z"/>
			<path id="path1997_2_" fill="#FFFFFF" d="M87.956,23.517c2.398,2.071,3.489,4.907,4.144,7.741l0.437,0.872
				c-3.49-2.507-6.542-5.778-8.723-9.268l-2.726-2.725C83.377,21.009,85.885,21.663,87.956,23.517L87.956,23.517z"/>
			<path id="path1999_2_" fill="#FFFFFF" d="M33.55,20.464c-2.398,2.072-4.033,4.689-5.778,7.197
				c-1.636,1.962-3.599,3.271-5.452,4.905c0.982-1.963,0.982-4.361,2.399-6.215C26.681,22.972,30.388,21.772,33.55,20.464
				L33.55,20.464z"/>
			<path id="path2001_2_" fill="#FFFFFF" d="M20.575,27.77c1.199-1.418,2.617-2.399,4.252-2.835
				c-3.161,2.181-2.943,6.105-4.033,9.376c-0.328,1.2-0.872,2.29-1.199,3.599l0.108,0.108c0.545-1.417,1.417-2.726,2.616-3.925
				c2.29-2.071,5.67-3.38,6.761-6.542c0,4.361-3.707,7.741-7.088,10.141c-1.417,1.199-2.834,2.616-3.598,4.252
				c-0.108-1.091,0.109-2.181,0.109-3.38C18.177,34.856,17.85,30.604,20.575,27.77L20.575,27.77z"/>
			<path id="path2003_2_" fill="#FFFFFF" d="M14.033,40.635c-0.108-3.816,1.527-6.979,3.708-9.813c0.108,0,0.108-0.108,0.217-0.108
				c-2.508,3.707-0.435,8.396-0.545,12.648l-0.326,4.36c0,0,0,0.109,0.108,0.109c0.109-0.437,0.218-0.981,0.328-1.527
				c0.544-3.488,3.597-5.996,6.323-8.395c0.544-0.654,1.09-1.309,1.417-2.072c-0.218,1.744-0.763,3.489-1.526,5.125
				c-2.071,4.034-5.888,7.305-6.65,11.993C16.759,48.703,13.816,45.323,14.033,40.635L14.033,40.635z"/>
			<path id="path2005_2_" fill="#FFFFFF" d="M12.18,46.087c0.327-1.2,0.437-2.399,0.981-3.49c-0.981,5.016,2.399,8.723,3.489,13.084
				c0.437,1.636,0.545,3.38,1.199,4.906c0.108,0,0.108,0,0.108-0.108c-1.635-4.688,0.764-8.94,3.162-12.647
				c0.546-0.981,0.872-2.072,1.199-3.271c0.219,2.072-0.327,4.58-0.545,6.76c-0.545,2.836-1.417,5.452-2.18,8.068
				c-0.546,1.637-0.328,3.599-0.109,5.343l-0.219-0.218c-1.743-3.271-5.233-5.779-6.323-9.377
				C12.18,52.519,11.635,49.14,12.18,46.087L12.18,46.087z"/>
			<path id="path2007_2_" fill="#FFFFFF" d="M12.071,56.009c0.436,5.342,6.105,8.177,8.831,12.646
				c0.654,0.872,1.199,1.963,2.071,2.617c-0.108-0.545-0.654-1.091-0.872-1.636c-0.981-1.854-1.308-4.034-1.09-6.323
				c0.218-2.727,1.417-5.234,0.98-8.178c2.398,5.016,1.637,11.34,2.944,16.899c0.327,1.199,1.09,2.29,1.526,3.381
				c-4.797-3.271-11.339-6.434-13.52-12.43C11.962,60.915,11.853,58.297,12.071,56.009L12.071,56.009z"/>
			<path id="path2009_2_" fill="#FFFFFF" d="M14.906,68.22c2.726,6.105,9.376,6.542,13.956,10.249
				c0.872,0.763,1.743,1.309,2.616,1.744l0,0c-1.091-0.981-2.181-1.963-2.944-3.271c-2.616-3.708-1.744-8.832-3.707-12.757
				c1.745,2.181,3.38,4.361,4.471,6.869c1.636,4.034,2.181,8.504,5.997,11.448c-4.035-1.309-8.832-0.981-12.321-3.49
				C19.158,76.833,15.669,72.689,14.906,68.22L14.906,68.22z"/>
			<path id="path2011_2_" fill="#FFFFFF" d="M21.884,79.559c4.361,4.906,11.339,3.271,17.118,4.579
				c0.763,0.109,1.525,0.437,2.398,0.327c-0.654-0.437-1.636-0.437-2.398-0.763c-4.471-1.526-5.125-6.434-7.633-9.704
				c3.162,2.072,5.779,4.906,8.613,7.523c2.072,1.853,4.58,2.616,7.196,3.161c-0.653,0.219-1.417,0.219-2.181,0.328
				c-4.688,1.199-9.922,3.053-14.937,1.308C26.79,85.337,23.52,82.83,21.884,79.559L21.884,79.559z"/>
			<path id="path2013_2_" fill="#FFFFFF" d="M80.324,91.007c-4.906,1.854-9.922-0.109-13.737-2.943
				c-1.527-0.982-2.836-2.398-4.907-2.29c-0.763,0-1.417,0-2.07,0.218c3.706,1.744,7.086,4.035,10.248,7.087
				c-0.545,0.655-1.199,1.2-1.854,1.636c-3.053-3.271-6.324-6.324-10.14-8.177c-0.764,0.108-1.418,0.544-2.072,0.872
				c-3.053,1.963-6.105,4.361-8.286,7.414l-1.963-1.636c3.054-3.161,6.542-5.561,10.249-7.306c-3.707-1.199-6.105,1.963-8.94,3.49
				c-3.271,2.289-7.959,3.379-11.885,1.744c-2.071-0.764-4.143-1.963-5.669-3.926c3.053,2.182,7.741,2.398,11.229,0.981
				c4.689-2.071,9.704-4.688,15.374-3.379c0.872,0,1.744,0.872,2.617,0.108c4.252-1.091,9.049-0.327,12.756,1.636l3.816,1.526
				c3.488,1.309,8.068,0.98,11.013-1.199C84.577,88.826,82.505,90.243,80.324,91.007L80.324,91.007z"/>
			<path id="path2015_2_" fill="#FFFFFF" d="M85.558,85.991c-5.452,2.072-10.903-0.436-16.137-1.309l-1.09-0.108l0,0
				c2.508-0.546,4.906-1.309,6.868-3.053c2.944-2.835,5.561-5.67,8.831-7.96c-2.397,3.053-2.616,7.524-6.649,9.486
				c-0.982,0.654-2.182,0.763-3.271,1.199c1.417,0,2.725-0.437,4.251-0.654c5.343-0.873,11.449,0,15.155-4.58
				C92.208,82.284,88.72,84.901,85.558,85.991L85.558,85.991z"/>
			<path id="path2017_2_" fill="#FFFFFF" d="M95.37,70.618c-2.181,1.417-4.361,2.726-6.433,4.361v-0.218
				c3.162-5.234,1.636-12.538,3.599-18.317l0.763-1.963c-0.437,3.598,1.199,6.651,1.091,10.249
				c-0.109,2.181-0.873,4.143-1.963,5.888h0.218c1.527-2.071,2.726-4.252,4.579-6.105c2.835-2.726,5.669-5.451,5.997-9.268
				C104.202,61.569,100.604,67.129,95.37,70.618L95.37,70.618z"/>
			<polygon id="polygon2021_2_" fill="#FFFFFF" points="57.21,56.989 58.19,56.989 58.19,81.521 57.21,81.521 			"/>
			<polygon id="polygon2023_2_" fill="#FFFFFF" points="51.867,54.591 52.631,55.245 35.186,72.581 34.531,71.927 			"/>
			<polygon id="polygon2025_2_" fill="#FFFFFF" points="50.231,49.466 50.231,50.448 25.7,50.338 25.7,49.466 			"/>
			<polygon id="polygon2027_2_" fill="#FFFFFF" points="52.521,44.669 51.867,45.433 34.531,28.096 35.186,27.333 			"/>
			<polygon id="polygon2029_2_" fill="#FFFFFF" points="58.19,42.707 57.21,42.707 57.21,18.175 58.19,18.175 			"/>
			<polygon id="polygon2031_2_" fill="#FFFFFF" points="63.098,44.996 62.334,44.342 79.779,27.006 80.434,27.77 			"/>
			<polygon id="polygon2033_2_" fill="#FFFFFF" points="64.951,50.448 64.951,49.575 89.482,49.466 89.482,50.448 			"/>
			<polygon id="polygon2035_2_" fill="#FFFFFF" points="62.116,55.463 62.771,54.809 80.215,72.145 79.452,72.799 			"/>
			<path fill="#FFFFFF" d="M66.805,25.37c-13.521-5.015-28.566,1.854-33.582,15.374c-5.016,13.52,1.854,28.565,15.265,33.581
				c13.52,5.016,28.565-1.854,33.581-15.373C87.193,45.541,80.324,30.495,66.805,25.37z M81.088,58.625
				C76.29,71.49,61.897,78.142,48.923,73.234c-12.865-4.797-19.516-19.188-14.61-32.163c4.798-12.866,19.19-19.517,32.165-14.61
				C79.343,31.258,85.885,45.649,81.088,58.625z"/>
			<path fill="#FFFFFF" d="M64.733,31.04c-10.358-3.925-22.024,1.417-25.95,11.775c-3.925,10.357,1.418,22.024,11.775,25.949
				c10.468,3.816,22.133-1.417,25.949-11.885C80.434,46.522,75.091,34.856,64.733,31.04z M75.418,56.554
				c-3.707,9.813-14.61,14.827-24.423,11.12c-9.813-3.706-14.828-14.609-11.121-24.422c3.707-9.813,14.609-14.828,24.423-11.122
				C74.11,35.729,79.125,46.74,75.418,56.554z"/>
			<path fill="#FFFFFF" d="M62.661,36.492c-7.414-2.836-15.591,0.98-18.426,8.395c-2.727,7.415,0.981,15.7,8.396,18.427
				c7.413,2.726,15.7-0.981,18.426-8.396C73.891,47.503,70.075,39.218,62.661,36.492z M70.075,54.481
				c-2.616,6.869-10.249,10.358-17.117,7.742c-6.869-2.617-10.358-10.25-7.741-17.119c2.616-6.869,10.248-10.357,17.117-7.74
				C69.203,39.98,72.691,47.612,70.075,54.481z"/>
			<path fill="#FFFFFF" d="M60.371,42.597c-4.034-1.525-8.504,0.546-10.03,4.58s0.545,8.504,4.579,10.031
				c4.034,1.525,8.504-0.545,10.031-4.58C66.478,48.594,64.405,44.015,60.371,42.597z M63.97,52.192
				c-1.309,3.488-5.125,5.233-8.613,3.925c-3.489-1.309-5.233-5.124-3.925-8.614c1.308-3.488,5.124-5.232,8.612-3.924
				C63.424,44.887,65.169,48.703,63.97,52.192z"/>
			<path id="path2047_2_" fill="#FFFFFF" d="M76.727,65.058c0,0.219,0,0.545,0,0.654c0.108,0.108,0.436,0.108,0.545,0.108
				c0.327-0.108,0.764-0.654,0.872-0.98c0.108-0.218,0.218-0.437,0.218-0.654l-0.218-0.764c-0.108-0.218-0.108-0.763-0.437-0.872
				c0-0.109,0.109-0.218,0.109-0.326c-0.109-0.328-0.545-0.219-0.764,0c-0.108,0.108-0.108,0.326-0.108,0.436
				c0,0.327-0.109,0.872-0.218,1.09c-0.109,0.219-0.437,0.545-0.437,0.873C76.398,64.84,76.617,64.948,76.727,65.058L76.727,65.058z
				 M60.044,62.878l0.109,0.217c0,0,0,0.109,0.109,0.109c0.218,0.218,0.545-0.326,0.218-0.326h-0.109
				C60.153,62.878,60.153,62.878,60.044,62.878L60.044,62.878z M60.371,62.44c-0.108,0.109-0.218,0.219,0,0.328V62.44L60.371,62.44z
				 M56.229,59.497c-0.218,0.218-0.218,0.109-0.327,0.218c-0.109,0.109,0,0.219-0.109,0.327c0,0.109-0.109,0.109-0.109,0.219
				s0.109,0.109,0.219,0.218c0.109,0,0.545,0,0.654-0.108c0.109-0.109,0.109-0.219,0.109-0.328l0.108-0.108
				C56.773,59.497,56.446,59.279,56.229,59.497L56.229,59.497z M66.041,58.407v0.326v0.328c0.327-0.109,0.546-0.219,0.872-0.328
				c0.109,0,0.328-0.108,0.328-0.108c0.108,0.108,0,0.218,0,0.218c0,0.109-0.219,0.437-0.328,0.545
				c-0.326,0.327-0.654,0.327-0.98,0.654c-0.219,0.219-0.219,0.328-0.437,0.545c-0.218,0.218-0.327,0.218-0.437,0.328
				c-0.108,0.109,0,0.218-0.218,0.326l0.109-0.217c-0.109,0-0.218,0-0.327-0.109c0-0.11-0.109-0.219,0-0.328
				c0-0.217,0.109-0.763,0.218-0.872c0,0,0.327-0.108,0.437-0.218v0.218c0.108,0,0.218,0,0.326-0.108
				c0.219,0,0.328-0.437,0.437-0.545l-0.437,0.218C65.604,58.952,65.823,58.517,66.041,58.407L66.041,58.407z M56.992,59.388
				c-0.109,0.327,0.108,0.219,0.218,0.327c0.109,0.109,0.109,0.109,0.109,0.219l-0.219,0.108l-0.108,0.219l-0.109,0.218l0.437,0.108
				c-0.219,0.109-0.327,0.109-0.546,0.328h0.546c0.326,0,0.653,0.109,0.98-0.11l-0.109-0.108L58.3,60.37l-0.218-0.219l-0.109-0.218
				l-0.437-0.546h-0.108c0.108-0.108,0.327-0.436,0-0.436H57.21l0.109-0.219c-0.219,0-0.327,0-0.546,0.109
				C56.665,59.062,56.665,59.279,56.992,59.388L56.992,59.388z M56.773,55.026v0.219l-0.108-0.109v0.437
				c0.108,0.218,0.327,0.108,0.327,0.108c0.108,0,0.108-0.218,0.108-0.218c0-0.108,0-0.108-0.108-0.108c-0.109,0-0.109,0-0.219,0
				V55.026L56.773,55.026L56.773,55.026z M29.08,57.208c0,0.545,0.108,0.545,0.218,0.98c0.109,0.219,0,0.328,0.109,0.764
				c0.109,0.218,0.109,0.436,0.327,0.436c-0.109-0.545-0.109-0.871-0.327-1.417C29.407,57.644,29.298,57.534,29.08,57.208
				L29.08,57.208L29.08,57.208z M75.527,51.647c-0.109,0.108-0.219,0.217-0.219,0.326c0,0.219,0.109,0.328,0.327,0.219
				C75.854,52.082,75.854,51.538,75.527,51.647L75.527,51.647z M43.799,51.538c-0.109,0.218-0.109,0.326,0.109,0.436
				C43.799,51.864,43.908,51.647,43.799,51.538L43.799,51.538z M53.721,51.647l0.108,0.108c0.219-0.218,0.328-0.327,0.437-0.545
				c0.109-0.218,0.218-0.218,0.327-0.218c0.109-0.109,0-0.109,0.109-0.219c0-0.109,0.109-0.218,0.109-0.437
				c0-0.218-0.109-0.544-0.328-0.436v-0.218c-0.108,0-0.218,0.109-0.326,0.109c-0.109,0.108,0,0.217-0.219,0.326
				c-0.109,0.218-0.436,0.328-0.436,0.328c-0.109,0,0,0.108-0.219,0.217c-0.218,0.109-0.326,0.109-0.545,0.109
				c-0.218,0-0.436,0.327-0.545,0.437c-0.218,0.218-0.218,0.327-0.327,0.653c0,0.109-0.109,0.218,0,0.218c0,0.11,0.109,0.11,0.218,0
				c0.109,0,0.437-0.218,0.546-0.218c0.108,0,0.108,0.109,0.218,0.109s0.218,0,0.218,0c0.108,0,0.108,0.108,0.218,0.219
				c0.219,0.109,0.327-0.11,0.437-0.328C53.611,51.864,53.721,51.756,53.721,51.647L53.721,51.647z M53.829,49.14L53.829,49.14
				L53.829,49.14L53.829,49.14L53.829,49.14z M54.157,49.357c0.108,0.218,0.436,0.437,0.654,0.545c0.108,0,0.108-0.108,0.108-0.108
				c0.108-0.219,0-0.546-0.108-0.654c-0.109-0.109-0.219,0-0.328,0c0,0,0-0.109-0.108-0.109
				C54.048,48.812,53.721,49.466,54.157,49.357L54.157,49.357z M52.739,48.921c0.219,0.219,0.219,0.219,0.545,0.219
				c0,0.218-0.326,0.545-0.545,0.436c-0.108-0.109-0.108-0.218-0.218-0.218c-0.109-0.109-0.109,0.218-0.218,0.218
				c-0.109,0.219-0.327,0.219-0.437,0.654l0.109-0.109c0.108,0.218,0.327,0,0.545-0.109c0,0-0.109,0.109-0.109,0.219
				c0,0.108,0.109,0.219,0.219,0.108c0.108,0,0.218-0.218,0.327-0.327c0.108-0.108,0.108-0.108,0.217-0.108
				c0.109-0.108,0.219-0.218,0.328-0.218c0.326-0.219,0.326-0.109,0.436-0.437c0-0.108,0-0.108,0-0.218
				c-0.109-0.327-0.654,0-0.654-0.109h-0.218C52.958,48.812,52.849,48.921,52.739,48.921L52.739,48.921z M54.266,48.812h-0.218
				v0.109c0.218,0,0.327-0.109,0.327-0.327C54.375,48.594,54.375,48.594,54.266,48.812L54.266,48.812z M43.689,49.466l-0.108,0.764
				l0.108,0.327l0.109,0.654c0.109-0.109,0.219-0.546,0.219-0.763V50.12c0-0.218,0-0.326,0-0.436l-0.219,0.218L43.689,49.466
				L43.689,49.466L43.689,49.466z M54.702,48.594c0-0.218,0-0.218,0.218-0.108v-0.328c-0.108,0-0.218,0.109-0.327,0.109
				C54.375,48.376,54.375,48.594,54.702,48.594L54.702,48.594z M53.611,48.157l0.109,0.109c0.218-0.109,0.327,0,0.545,0.109v-0.219
				l0.109-0.108c0.218,0,0.218-0.218,0.108-0.327l-0.108-0.109c-0.327-0.218-0.437,0.109-0.437,0.219L53.611,48.157L53.611,48.157z
				 M54.483,48.049c0.109,0,0.109,0,0.219,0c0.109-0.108,0-0.437-0.109-0.546c-0.109,0-0.109,0.109-0.109,0.109v0.109v0.219V48.049
				L54.483,48.049z M43.689,48.812c0.109-0.108,0.109-0.436,0.219-0.545C43.689,48.376,43.689,48.594,43.689,48.812L43.689,48.812z
				 M44.889,46.632c0,0.326,0,0.545-0.108,0.871c-0.108,0.328-0.437,0.764-0.545,1.091l-0.109-0.108
				c-0.108,0.218-0.108,0.654-0.108,0.872c0.218-0.218,0.218-0.437,0.326-0.654c0.219-0.437,0.545-0.872,0.654-1.417
				c0-0.109,0-0.546,0-0.654C44.998,46.74,44.998,46.74,44.889,46.632L44.889,46.632z M75.527,47.612
				c0.218-0.218,0.218-0.763,0.326-1.09c0.109-0.764,0.545-1.09,0.437-1.963c0-0.218-0.109-0.654-0.327-0.654
				c-0.327,0-0.218,0.437-0.218,0.546c0,0.108,0,0.218,0,0.218c-0.218,0.327-0.109,0.764-0.109,1.09l-0.218,1.309L75.527,47.612
				L75.527,47.612z M70.075,41.726c0,0.108,0,0.108,0.108,0.108l0.11,0.109c0.218,0.109,0.326-0.109,0.218-0.218
				c0-0.109-0.218-0.109-0.218-0.109C70.184,41.726,70.184,41.726,70.075,41.726L70.075,41.726z M75.091,41.18
				c0,0.328,0.108,0.764,0.327,1.091l0.327,0.545l0.327,1.09c0.218-0.218,0.108-0.436,0-0.763c-0.109-0.436-0.327-0.872-0.545-1.309
				C75.418,41.616,75.309,41.288,75.091,41.18L75.091,41.18z M73.237,40.635v0.327l-0.437-0.109c0,0.219,0.109,0.655,0.327,0.764
				l0.327,0.327c0.327,0.218,0.545,0.545,0.872,0.764c0.218,0.326,0.218,0.436,0.327,0.545s0.109,0.109,0.219,0.109
				c0.108,0,0.108-0.219,0.108-0.328l0.109-0.218c0-0.219-0.109-0.437-0.218-0.545l-0.219-0.437
				c-0.109-0.218-0.109-0.437-0.327-0.654c-0.217-0.218-0.437-0.218-0.763-0.327L73.237,40.635L73.237,40.635z M63.86,41.071
				c0,0.108,0,0.326-0.218,0.437h-0.219l-0.108,0.436c-0.109,0.109-0.109,0.436-0.109,0.436c0,0.218,0.218,0.109,0.328,0
				c0.108-0.108,0.108-0.326,0.217-0.436c0.109-0.327,0.437-0.436,0.437-0.764L63.86,41.071L63.86,41.071z M74.327,39.871
				c0.109,0.327,0.218,0.327,0.327,0.546c0.109,0.108,0.109,0.218,0.219,0.218C74.764,40.417,74.437,39.871,74.327,39.871
				L74.327,39.871z M60.263,41.616c-0.327,0-0.109,0.437-0.219,0.545c-0.108,0.218-0.435,0.436-0.654,0.327
				c-0.108,0-0.217,0-0.326,0s-0.219-0.109-0.327-0.109l-0.546,0.437c-0.108,0.109-0.218,0.109-0.326,0.218
				c-0.109,0-0.219,0-0.328,0.109c-0.108,0.109,0,0.219,0,0.327l0.109,0.218c-0.326,0.109-0.326,0.327-0.218,0.654
				c0,0.218,0.108,0.763,0.108,0.872c0,0.219,0.219,0.327,0.437,0.327c0.109,0.108,0.327,0.108,0.327,0.108v-0.436h0.109
				l0.109,0.327h0.108l0.437,0.108c0,0,0,0,0.109,0.109c0,0.109,0,0.328,0,0.328c0.108,0.217,0.326,0.326,0.545,0.217
				c0,0.219,0,0.219,0,0.328c0,0.218-0.109,0.218,0.108,0.545c0,0.109,0.109,0.218,0.218,0.218c0.109,0,0.327-0.218,0.546-0.437
				c0,0.219,0.108,0.219,0.218,0.328v0.217l0.327-0.217c-0.108,0.545-0.327,0.436-0.545,0.763c-0.109,0.218,0,0.327-0.109,0.545l0,0
				l0.109-0.108h0.108c0.328-0.109,0.109,0.326,0.109,0.326c0,0.109,0.109,0.109,0.109,0.109l-0.109,0.109l0.109,0.218h-0.654
				c-0.327,0.109-0.545,0.327-0.764,0.437v0.109h0.109l-0.545,0.326c0.218,0,0.436,0,0.545,0c0.218,0,0.109,0,0.327-0.109
				l0.108,0.109v0.109l0.764,0.219c0.219,0,0.327,0,0.437,0c0.108,0.108,0.108,0.217,0.327,0.326
				c0.326,0.109,0.545-0.109,0.763-0.109l-0.327,0.328l0.109,0.218l0.327-0.109c-0.218,0.218-0.218,0.109-0.654,0.109
				c0.108,0.108,0.437,0.218,0.545,0.218c0.218,0,0.218,0,0.546,0.109c0.218,0,0.436,0.218,0.544-0.109
				c0,0.109,0.11,0.109,0.11,0.109c0.108,0.109,0.217,0,0.326,0.109c0.109,0,0.437,0.217,0.437,0.435l-0.109,0.11
				c0-0.11-0.109-0.219-0.218-0.328c-0.219-0.217-0.436-0.108-0.764-0.217l-0.436-0.109h-0.327c-0.218,0-0.327-0.109-0.546-0.109
				c-0.108,0-0.218,0-0.108,0.109c0,0.109,0.108,0.109,0.108,0.109c0.219,0.108,0.109,0,0.437,0.217
				c0.218,0.109,0.218,0.109,0.437,0.109l0.218,0.108c0.109,0,0.218,0,0.327,0c0.108,0,0.219,0,0.327,0l-0.763,0.437l-0.437-0.108
				c0.108,0.218,0.108,0.218,0,0.437l-0.109-0.109c-0.108,0.109-0.108,0.218-0.218,0.327l-0.109,0.218
				c0,0.109-0.109,0.219-0.218,0.219c-0.109,0-0.218-0.109-0.328-0.219c-0.108-0.109-0.217-0.109-0.326,0
				c0.109,0.219,0.218,0.109,0.326,0.219c0.11,0.108,0.546,0.436,0.655,0.545c0,0-0.109,0-0.109,0.109
				c-0.109,0.108,0,0.326,0.109,0.436c0.109,0.108,0.109,0.108,0.218,0.108l-0.437,0.327c0.219,0,0.219,0,0.437,0.109h-0.327
				l-0.327-0.437l-0.436-0.218c0.217,0,0.436,0,0.653,0c0.328-0.109,0.109-0.436-0.108-0.654c-0.109-0.109-0.218-0.109-0.437-0.109
				c-0.108,0-0.326-0.108-0.436-0.108l-0.327,0.108v-0.108c-0.109,0-0.109-0.108-0.219,0c-0.108-0.108-0.108-0.108-0.218-0.108
				v0.217l-0.109-0.108v0.218c-0.108-0.109-0.108-0.109-0.218-0.218l0.109,0.437l-0.326-0.109c-0.22,0.109-0.22,0.545-0.11,0.654
				c0,0.436,0,0.545-0.109,0.872c0,0.218,0.109,0.327,0,0.654c0,0.108-0.108,0.546-0.217,0.654l-0.109,0.218l-0.109,0.219
				c-0.109,0.108-0.109,0.218-0.218,0.326c0,0.109,0,0.219,0.108,0.219c0.109,0.218-0.108,0.109,0.109,0.436l-0.109,0.108h0.109
				c-0.109,0.22,0.109,0.437,0.327,0.328c0.218,0,0.328-0.218,0.437-0.437h0.108l0.437,0.764c0.108,0.108,0.108,0.218,0.218,0.327
				c0.109,0,0.218-0.109,0.218-0.219c0.109-0.108,0.109-0.108,0.219-0.218c0.109-0.218-0.109-0.436-0.109-0.654
				c0-0.109,0.109-0.218,0.109-0.436c0-0.219-0.219-0.327-0.327-0.437c-0.109-0.108-0.109-0.219-0.109-0.437
				c0-0.326,0.109-0.436,0.218-0.763c0-0.218-0.108-0.327-0.108-0.437c0-0.108,0-0.218,0.108-0.218
				c0.219-0.108,0.219,0.218,0.328,0.437v0.326c0,0.109-0.109,0.219-0.109,0.438c0,0.108,0.109,0.217,0.218,0.326
				c0.109,0.108,0.109,0.219,0.109,0.219c0.108,0,0.108,0.108,0.217,0c0.11,0,0.11,0.108,0.219,0c0.218,0,0.327-0.328,0.437-0.437
				s0.218-0.108,0.327-0.108c-0.109,0.108-0.218,0.326-0.218,0.326c-0.109,0.108-0.328,0.108-0.328,0.327
				c-0.108,0.327,0.328,0.218,0.328,0.437c0,0.218-0.328,0-0.328,0.218c-0.108,0.218,0,0.326,0.109,0.546
				c0,0.108,0,0.217-0.109,0.326c-0.108,0.218-0.218,0.109-0.437,0.218c-0.108,0.109-0.326,0.327-0.544,0.437
				c-0.109,0-0.219,0-0.327,0c-0.109,0-0.219,0.218-0.437,0s0-0.327,0-0.545l-0.109-0.327c-0.218,0.108-0.326,0.218-0.326,0.545
				c0.108,0.218,0.326,0.437,0.218,0.545c-0.109,0.109-0.327,0.109-0.437,0.219c-0.218,0.108-0.436,0.437-0.436,0.545
				c-0.109,0.108-0.219,0.108-0.327,0.108l-0.327,0.328c0,0,0,0-0.109,0.109l-0.436-0.109v0.218c-0.219,0-0.219,0-0.328,0
				c-0.108,0-0.326,0-0.326,0.108c-0.109,0.109,0.218,0.219,0.326,0.219c0.437,0.218,0.546,0.654,0.328,0.872
				c-0.109,0.108-0.328,0-0.437,0c-0.327,0-0.763-0.218-1.091-0.218c-0.436,0-0.326,0.326-0.326,0.545
				c0,0.109-0.109,0.219-0.219,0.327v0.108c0,0,0.109,0.437,0.109,0.327c0,0.109,0.327,0.109,0.436,0.109
				c0.219,0,0.219,0.109,0.328,0.218c0.108,0.109,0.218,0,0.327,0c0.327,0,0.544,0.109,1.09-0.108c0.108,0,0.218-0.109,0.218-0.219
				c0.109-0.108,0-0.218,0.219-0.327c0.108-0.108,0.436-0.217,0.654-0.326c0.108-0.109,0-0.328,0.217-0.437
				c0.219,0,0.328,0.108,0.546,0c0.218,0,0.436-0.327,0.654-0.327c0.218,0,0.327,0.219,0.654,0.327l1.09,0.218
				c0,0,0.109,0,0.109,0.109c0.327,0.219-0.109,0.327-0.327,0.436c-0.109,0-0.219,0-0.327,0.109c0,0,0,0.109,0.108,0.109
				c0.109,0.108,0.437,0.108,0.654,0c0.109-0.109,0-0.109,0-0.219c0.109,0,0.219-0.108,0.219-0.217c0-0.109-0.109-0.219,0-0.328
				s0.218-0.109,0.327-0.109c-0.109-0.217-0.327-0.108-0.437-0.108s-0.109-0.108-0.218-0.108c-0.109,0-0.218,0.108-0.327,0
				c-0.109,0-0.219-0.109-0.327-0.109c-0.109-0.109-0.437-0.109-0.328-0.327c0-0.109,0.11-0.109,0.11-0.109h0.108v0.109
				c0.327-0.109,0.218,0,0.546,0.108c0.326,0.109,0.654,0,0.872,0.109c0.218,0,0.108,0.109,0.218,0.327
				c0.219,0.108,0.436,0.108,0.654,0.108c0,0-0.109,0-0.109,0.109c-0.109,0.109,0,0.219,0.109,0.219
				c0.218,0.109,0.654-0.109,0.327-0.328l0.545-0.217c-0.218-0.109-0.327,0-0.654-0.219c0.218,0,0.218,0,0.327-0.109v-0.108
				l0.545-0.327c-0.218,0.327,0,0.218,0.109,0.545c0.218,0,0.327,0,0.545,0c0.108,0,0.437-0.218,0.545-0.218
				c0.109-0.109,0.109-0.218,0.219-0.218l0.436-0.219c0.109-0.109,0.328-0.218,0.437-0.436c0.109-0.11,0.109-0.11,0.218-0.11
				c0.109,0.11,0.218,0.437,0.218,0.546s0.11,0.219,0.11,0.327c0,0.437-0.437,0.546-0.764,0.763
				c-0.219,0.109-0.327,0.438-0.545,0.438c-0.219,0.217-0.982,0.436-1.309,0.544h-1.091c-0.109,0.109-0.327,0.219-0.437,0.327
				c0,0.109,0,0.327-0.108,0.437c-0.108,0.108-0.872,0.218-0.981,0.108c-0.327,0-0.218-0.108-0.545-0.108s-0.764,0.108-1.199,0
				c0.109-0.109,0.218-0.218,0.218-0.327s0-0.109,0-0.218v-0.109c-0.108-0.109-0.327-0.109-0.437-0.109
				c-0.218,0.109-0.218,0.109-0.545,0.109l-1.199,0.109c-0.654,0-1.09,0.327-1.309,0.327c-0.218,0-0.545,0-0.763-0.109
				c-0.109-0.109-0.327-0.218-0.437-0.109c-0.218,0-0.218,0.219-0.436,0.327c-0.219,0.109-0.546,0.109-0.764,0.327
				c-0.219,0.109-0.109,0.327-0.327,0.437c-0.108,0-0.545,0-0.763,0.108c-0.328,0-0.546,0.109-0.873,0.328l-0.326,0.108
				c-0.109,0-0.437,0.109-0.437,0.218c-0.109,0.109,0,0.218,0,0.328c0,0.108,0,0.218,0,0.326c-0.218,0.219-0.654,0.437-0.545,0.872
				c0.108,0.219,0.218,0.219,0.436,0.437c0.327,0.327,0.546,0.872,0.981,1.09c0.436,0.327,1.199,0.764,1.744,0.872h0.981
				c0.546,0,0.981,0.219,1.526,0.219l1.309-0.219c0.219,0,0.654-0.108,0.981,0c0.327,0.109,0.327,0.328,0.872,0.219l0.653-0.109
				c0.219,0,0.328-0.109,0.437,0c0.437,0.219-0.326,0.653,0,0.981c0.219,0.109,0.764,0.218,1.091,0.327
				c0.218,0,0.763,0.327,0.872,0.436C63.97,71.49,63.97,71.49,63.97,71.6c0.108,0.109,0.218,0.109,0.218,0.218
				c0,0.109-0.218,0.327-0.218,0.327c-0.219,0.219-0.546,0.654-0.327,0.981c0.108,0.108,0.327,0.218,0.436,0.218l0.981,0.327
				c0.437,0.218,0.437,0.545,0.764,0.654c0.218,0.109,0.436,0.109,0.764,0.109l0.98,0.217c0.328,0.11,0.218,0.328,0.437,0.328
				c0.545,0,1.525-0.437,1.962-0.764l0.982-0.545c0.436-0.218,0.763-0.437,1.089-0.654c0.654-0.545,1.2-1.199,1.527-1.854
				C73.674,70.945,74,70.4,74,70.29c0-0.217-0.218-0.326-0.109-0.544c0.109-0.219,0.546-0.546,0.654-0.873
				c0.109-0.108,0.109-0.326-0.108-0.436c-0.109-0.109-0.218,0-0.546-0.109c0.22-0.545,0.546-1.089,0.873-1.635
				c0.109-0.218,0.436-0.654,0.436-0.872c0-0.327-0.218-0.327-0.436-0.437c-0.109-0.108-0.109-0.108-0.109-0.219
				c-0.109-0.108-0.327,0.11-0.544,0c-0.11,0-0.22,0-0.22-0.108c-0.108-0.109-0.217,0-0.326,0c-0.109-0.436,0.218-1.309,0.326-1.744
				c0.328-0.981,0.654-1.963,0.546-3.053l-0.109-0.764c0-0.109-0.108-0.218-0.217-0.218c-0.22,0-0.328,0.654-0.437,0.872
				l-0.437,0.873c-0.109,0.217-0.218,0.436-0.327,0.545c-0.109,0.108-0.327,0.218-0.437,0.326c0-0.218-0.108-0.108-0.327-0.108
				l-0.872,0.545c-0.108,0.108-0.326,0.218-0.545,0.327c-0.109,0-0.218-0.109-0.436,0c-0.11,0-0.328,0.109-0.437,0.109
				s-0.328-0.109-0.437-0.219c-0.108,0-0.327,0-0.436,0.109c-0.327,0-0.873-0.109-1.2-0.219c0.11,0,0.11,0,0.11-0.108
				c0-0.218-0.219-0.437,0.108-0.545h0.108h0.546l0.327-0.109c0.218,0,0.218,0.109,0.436,0.109l0.873-0.218
				c0.326,0,0.436,0.326,0.872,0.108c0.327-0.218,0.545-0.873,0.654-1.199l0.326-0.764l0.11-0.545
				c0.108-0.437,0.217-0.545,0.217-0.981l-0.108-0.654c0-0.218-0.108-0.437-0.328-0.218c-0.217,0.218-0.326,0.437-0.653,0.437
				c-0.109,0.436,0,0.98-0.436,1.199c-0.11,0.108-0.328,0.108-0.546,0.108c-0.108,0-0.219,0.109-0.327,0.109
				c-0.109,0-0.218,0-0.218-0.109c0-0.108,0.218-0.218,0.326-0.218c0.328-0.109,0.437-0.218,0.765-0.436
				c0.108-0.219,0.108-0.437,0.326-0.545c0.109-0.109,0.219-0.109,0.328-0.219c0.108-0.109,0.218-0.436,0.326-0.654l0.437-1.199
				c0.218-0.327,0.545-0.436,0.654-0.872v0.218c0.326-0.218,0.326-0.545,0.326-0.872c0.219,0,0.654,0,0.765,0l0.763-0.437
				c0.218-0.109,0.545-0.326,0.545-0.545c0-0.109-0.219-0.545-0.219-0.654s-0.108-0.109-0.108-0.109c-0.218,0-0.437,0-0.546-0.217
				c-0.108-0.22-0.326-0.873-0.435-1.091c-0.328-0.654-0.328-0.546-0.437-0.763c-0.109-0.11-0.109-0.328-0.109-0.546
				c0-0.108-0.109-0.218-0.109-0.327s0.109-0.218,0.219-0.327c0.108-0.218,0.108-0.437,0.326-0.654
				c0.11-0.108,0.219-0.108,0.327-0.108c0.218-0.328-0.327-0.545-0.108-0.873c0.108-0.109,0.326-0.436,0.545-0.436
				c0.109,0,0.218,0,0.327,0c0.108-0.109,0.108-0.327,0.218-0.437c0.109-0.327,0.327-0.327,0.437-0.763c0-0.219,0-0.437-0.109-0.545
				c-0.108-0.219-0.327,0-0.437,0.108c-0.108,0.218-0.108,0.437-0.108,0.654s0,0.437-0.218,0.654
				c-0.109,0.218-0.437,0.108-0.546-0.109c0-0.108,0-0.108,0-0.218c0-0.219-0.108-0.327,0-0.654c0-0.109,0.109-0.545,0.109-0.545
				c0-0.109-0.326-0.437-0.437-0.545c-0.109-0.109-0.436-0.546-0.654-0.327c-0.218,0.108-0.218,0.545-0.218,0.763
				c0,0.109-0.108,0.327-0.218,0.327s-0.219,0-0.219-0.108c-0.218-0.219-0.326-0.328-0.326-0.654c0.108,0,0.436,0.108,0.436,0
				c0-0.109-0.218-0.327-0.327-0.327c-0.108,0-0.108,0.108-0.327,0c-0.109-0.109-0.436-0.654-0.653-0.872
				c-0.219-0.218-0.437-0.437-0.764-0.654c-0.218,0-0.764-0.328-0.872-0.109c-0.108,0,0,0.109-0.108,0.218l-0.109-0.108
				c-0.219,0-0.327,0.218-0.327,0.437c0,0.108,0,0.218-0.109,0.218c-0.108,0-0.218,0-0.218-0.109
				c-0.219-0.108-0.219-0.108-0.437-0.218c0,0.109,0.109,0.218,0.218,0.436c0.219,0.218,0.328,0.218,0.328,0.545
				c-0.328-0.108-0.655-0.218-0.764-0.436l0.218-0.109v-0.108c-0.109-0.109-0.437-0.327-0.545-0.437
				c0-0.109,0.108-0.109,0.108-0.218c0-0.109-0.108-0.109,0-0.327c0.109-0.109,0.327-0.219,0.219-0.327
				c0-0.109-0.109-0.109-0.109-0.109c-0.109-0.108-0.437-0.218-0.545-0.108c-0.109,0.108,0,0.326-0.109,0.654
				c-0.108,0-0.326-0.109-0.436-0.109s-0.327,0.109-0.437,0c-0.218-0.109-0.327-0.327-0.545-0.327c-0.437-0.218-0.763-0.109-1.091,0
				c-0.218,0-0.436,0-0.545,0.108c-0.109,0.109-0.218,0.219-0.218,0.328c-0.109,0.218-0.437,0.326-0.437,0.545
				c0.109,0.218,0.218,0.218,0.327,0.327l0.218,0.436c-0.218,0.109-0.327,0-0.545,0l-0.763,0.218c-0.437,0-0.546-0.218-0.764-0.327
				c-0.108-0.108-0.218,0-0.327-0.108c-0.109-0.109-0.109-0.218-0.109-0.218c-0.108-0.109-0.437-0.109-0.545-0.109
				c0,0.109,0,0.109,0,0.218c-0.108,0.109-0.326,0.218-0.436,0.327c-0.109,0-0.219,0-0.219,0v-0.109
				c0-0.218-0.108-0.108-0.218-0.108c-0.218,0-0.327,0.218-0.437,0.327c0.109-0.109,0.109-0.219,0.219-0.327
				c0.109-0.109,0.327-0.109,0.436-0.218l0.546-0.327c0.108-0.109,0.327-0.219,0.436-0.219c0.327-0.218,0.327-0.98,0.218-1.308
				c-0.545,0.218-0.437,0.218-0.763,0.436c-0.108,0.109-0.218,0.109-0.327,0.109C60.263,41.397,60.263,41.508,60.263,41.616
				L60.263,41.616z M63.751,40.417l0.327,0.218l0.219,0.437c0.218-0.109,0.218-0.109,0.327-0.219c0.109,0,0.436,0.109,0.436-0.218
				l-0.108-0.109v0.109c-0.109-0.109-0.218-0.218-0.437-0.218C64.405,40.417,63.97,40.417,63.751,40.417L63.751,40.417z
				 M64.951,40.525c0.436,0,0.436-0.218,0.653-0.218c0.109,0,0.328,0,0.437,0v0.109c0.327,0.108,0.218-0.109,0.437,0
				c0.218,0.108,0.327,0.327,0.654,0.436c0.109,0.109,0.218,0.109,0.327,0c0.108,0.109,0.108,0.109,0.218,0.109
				c0-0.218,0.108-0.218,0.108-0.327s-0.436-0.218-0.436,0.109c-0.108-0.109-0.108-0.219-0.108-0.327
				c-0.109-0.109-0.328-0.219-0.546-0.109c-0.108-0.327,0-0.218-0.437-0.437c-0.108-0.108-0.436-0.218-0.654-0.218
				c-0.218,0-0.218,0.109-0.436,0.218c-0.109,0.109-0.218,0.109-0.327,0.109C64.842,40.198,64.951,40.417,64.951,40.525
				L64.951,40.525z M72.037,39.108l0.437,0.436c0.109,0.219,0.327,0.437,0.546,0.654c0.108,0.109,0.326,0.219,0.545,0.109
				c0.109,0,0.546-0.437,0.218-0.654c-0.108-0.109-0.218,0-0.327,0c0-0.218,0-0.327-0.109-0.653c0-0.109,0-0.219-0.108-0.109
				c-0.109,0.109,0,0.545-0.218,0.436l-0.109-0.108h-0.219c-0.108,0.108,0,0.218,0.109,0.326c0.109,0.109,0.219,0.219,0.327,0.437
				c-0.327-0.218-0.437-0.437-0.654-0.763C72.365,39.108,72.257,39.108,72.037,39.108L72.037,39.108z M73.455,38.781
				c0.109,0.219,0.436,0.763,0.654,0.872C74,39.326,73.782,38.891,73.455,38.781L73.455,38.781z M48.597,41.18
				c0.108,0,0.218,0,0.326,0l0.873,0.218c0.218,0,0.436,0.11,0.654,0.328c-0.437,0-0.327,0-0.654-0.109c-0.327,0-0.437,0-0.654,0
				c-0.108,0-0.219,0-0.327-0.108l-0.872,0.108c-0.218,0-0.327-0.219-0.437-0.219c-0.109-0.109-0.327,0-0.436,0
				c-0.219,0.11-0.437,0.219-0.654,0.437c-0.437,0.327-0.873,0.545-1.199,0.981c-0.219,0.327-0.109,0.437-0.328,0.764
				c-0.217,0.218-0.653,0.545-0.98,0.98c-0.219,0.327-0.219,0.545-0.327,0.654c-0.109,0.109-0.437,0.327-0.546,0.327
				c-0.108,0-0.217,0-0.217,0.108c-0.109,0.109-0.109,0.219-0.219,0.328l-0.436,0.327c-0.109,0.108-0.437,0.653-0.437,0.872
				c0,0.218,0.327,0.326,0.218,0.654l-0.109,0.109c-0.218,0.108-0.327-0.109-0.436-0.109c-0.219,0-0.546,0.218-0.654,0.109
				c-0.109-0.109-0.109-0.328-0.109-0.438c0-0.217-0.109-0.217-0.218-0.326s0-0.437-0.218-0.764c-0.109-0.218-0.219-0.218-0.327,0
				l-0.109,0.219c-0.108-0.328-0.108-0.545-0.327-0.545c-0.327,0-0.436,0.326-0.545,0.545c-0.436,0.545-0.545,0.436-0.872,0.763
				l-0.437,0.437l-0.327,0.218c-0.108,0.108-0.218,0.437-0.327,0.654l-0.327,1.308c-0.108,0.327-0.218,0.764-0.436,0.873
				c-0.109,0-0.437,0-0.546,0c-0.108-0.109-0.218-0.109-0.326-0.219c-0.109,0-0.328,0-0.654-0.108
				c-0.109-0.108-0.328-0.327-0.437-0.437s-0.327,0-0.436,0c-0.219,0-0.437,0-0.546,0c-0.327-0.109-0.544-0.654-0.764-0.872
				c0-0.108-0.108-0.327-0.217-0.437c-0.109-0.108-0.328,0.109-0.546,0c-0.108,0-0.437-0.326-0.654-0.436
				c0,0-0.108-0.109-0.218-0.109s-0.109,0.109-0.109,0.219c0,0.218,0.109,0.326,0.219,0.545c0,0,0.108,0.109,0.108,0.218
				c-0.108,0.109-0.437-0.437-0.545-0.108c0,0.108,0,0.108,0,0.108h-0.109l-0.217-0.545v-0.218l-0.22-0.545l-0.326,0.217
				l-0.108-0.326l-0.109-0.219c0-0.218-0.219-0.109-0.327-0.109c-0.218,0.219-0.437,0.438-0.546,0.546
				c-0.217,0.108-0.327,0-0.436,0.108c-0.109,0.109-0.327,0.328-0.327,0.437l-0.218,1.417c-0.219,1.091-0.327,1.309-0.219,2.508
				l0.109,0.654l0.109,0.873l0.109,0.436h0.108c0-0.436,0-1.309,0.109-1.635c0.108-0.437,0.326-0.545,0.326-1.091l0.11,0.437
				c0.217-0.219,0.217-0.328,0.436-0.437c0.109,0.108,0.109,0.218,0.218,0.437c0,0.218,0.109,0.326,0.109,0.436
				c0.108,0.109,0.108,0.219,0.218,0.327c0.109,0.109,0.109,0.218,0.219,0.437c0.108,0.218,0.218,0.545,0.435,0.654
				c0.11-0.219,0.11-0.545,0.11-0.873c0-0.108,0-0.326,0.109-0.326c0.217,0,0.217,0.218,0.217,0.326
				c0.109,0.219,0.218,0.545,0.327,0.873c0.219,0.326,0.327,0.218,0.545,0.653v-0.218c0.109,0.218,0,0.437,0.219,0.545
				c0-0.108,0-0.763,0-0.763c0-0.108,0.109-0.108,0.218-0.108l0.109,1.09c0,0.109,0.108,0.327,0.108,0.436
				c0.219,0.219,0.437,0,0.545,0.219l0.109,0.545c0.11,0.436,0.327,0.981,0.437,1.309c0.108,0.326,0.327,0.654,0.545,0.872
				c0.109,0.108,0.219,0.218,0.327,0.218c0.109,0,0.109-0.218,0.109-0.326c0-0.109,0.109-0.219,0.109-0.328c0-0.218,0-0.326,0-0.545
				c0,0.219,0,0.219,0,0.436c0,0.219,0.108,0.546,0.217,0.873c0.11,0.436,0.219,0.763,0.546,1.09
				c0.108,0.219,0.545,0.545,0.763,0.654c0.328,0.328,0.654,0.545,0.981,0.873l0.437,0.326l0.327,0.219
				c0.327,0.218,0.327-0.109,0.545-0.109c0.109,0,0.437,0.327,0.546,0.436c0.545,0.546,0.326,0.328,0.763,0.873l0.872,0.98
				c0.219,0.219,0.545,0.654,0.872,0.654h0.327c0.327,0.109,0.764,0.218,1.091,0.109c0.109,0,0.218-0.109,0.327-0.109
				c0.109-0.108,0.109-0.218,0.326-0.218c0.109,0,0.437,0.109,0.654,0.218c0.328,0.218,0.873,0.437,1.199,0.546
				c0.328,0.108,0.654-0.218,0.546-0.546c-0.109-0.218-0.546-0.545-0.763-0.98c-0.219-0.327-0.328-0.764-0.546-1.09l-0.545-0.546
				l-0.327-0.545l-0.109-0.218c0-0.109-0.109-0.328-0.109-0.437l-0.326-0.981c-0.218-0.327-0.545-0.327-0.764-0.764
				c0.109,0.219,0.437,0.437,0.654,0.546c-0.108-0.219-0.327-0.654-0.436-0.873l-0.328-0.327c0.219,0.109,0.328,0.327,0.546,0.327
				l0.109-0.327c0.108-0.326,0.218-0.326,0.218-0.654c0-0.545-0.545-1.416-0.654-2.07c0-0.328,0-0.654,0.109-0.873v-0.545
				c0-0.109,0-0.219,0.108-0.327v-0.327c0-0.219,0.109-0.327,0-0.436l-0.108-0.546v-0.437l-0.109-0.545
				c0-0.436,0.218-0.545,0.218-0.872c0-0.108-0.108-0.545-0.218-0.545c-0.109-0.108-0.327,0-0.219-0.219
				c0.109-0.218,0.437,0.11,0.437,0.219c0.109-0.327,0-0.437,0-0.763l-0.108-0.873c-0.109-0.218-0.219-0.327-0.219-0.436
				c0-0.109,0.109-0.109,0.219-0.219c0.108-0.109,0.218-0.326,0.218-0.545v-0.545c0-0.327,0.218-0.654,0.545-0.764
				s0.654,0.219,0.763,0.219c0.219,0,0.219-0.219,0.328-0.328l0.436-1.09h0.109c0.218,0.327,0.326,0.327,0.545,0.545l0.218,0.219
				c0,0,0.109,0,0.218,0c0.109-0.109,0.219-0.654,0.219-0.873c0-0.108-0.219-0.218-0.219-0.436c0-0.109,0-0.218,0.109-0.327
				c0.109-0.218,0.109-0.437,0.327-0.654c0.327-0.326,0.872-0.436,1.309-0.108c0.218,0.108,0.108,0.218,0.218,0.326
				c0.109,0.109,0.327,0.109,0.327,0.327c0,0.109,0,0.219,0,0.327c0,0.219,0.109,0.219,0,0.437
				c-0.108,0.218-0.327,0.327-0.327,0.653c-0.109,0.328,0.109,0.328,0,0.546s-0.218,0.437-0.327,0.654
				c-0.653,0.218-0.653,0.437-0.872,0.545c-0.109,0.108-0.327,0.108-0.437,0.108c-0.218,0-0.327,0.219-0.545,0.219
				c0,0.109,0,0.109,0.109,0.219c0.108,0.217,0.218,0.217,0.436,0.108c0.219-0.108,0.655-0.218,0.873,0
				c0.217,0.218,0.327,0.872,0.436,1.091c0.218,0.108,0.327,0.108,0.546,0.218c0.108,0.108,0.218,0.108,0.326,0.218
				c0.219,0.219,0.219,0.436,0.328,0.545c0.108,0.109,0.218,0,0.326,0.218l0.545,0.764l0.327-0.327
				c0.109,0.109,0.219,0.109,0.219-0.109c0-0.108-0.109-0.327-0.109-0.436c0.218,0.219,0.218,0.436,0.218,0.654
				c0,0.109,0,0.109,0,0.218c0,0.109,0.219,0.437,0.327,0.437c0.109,0.109,0.219,0,0.327,0c0.109-0.219,0.218-0.545,0.328-0.764
				c0.108-0.218,0.435-0.218,0.763-0.545c-0.109,0-0.328-0.109-0.218-0.219c0-0.108,0.218-0.108,0.326-0.217
				c0.219-0.109,0.327-0.437,0.327-0.654h-0.436h-0.218h-0.328l-0.218-0.219H50.45c0.108-0.218,0.108-0.327,0.326-0.327
				c0.109,0,0.219,0,0.327,0c0.109,0,0.109-0.218,0.218-0.218c0.219-0.219,0.437-0.327,0.437-0.545c0.327,0,0.327,0,0.437,0
				c0.327,0.109,0.327,0.654,0.545,0.872c-0.327-0.109-0.327,0.218-0.327,0.437c0.109-0.109,0.327-0.219,0.437-0.328h0.436
				c0.109,0,0.109,0,0.219-0.108c0.218-0.109,0.436,0.108,0.545,0.327c0.109-0.109,0.109-0.109,0-0.327h0.218l-0.108-0.218
				c-0.219,0-0.219,0-0.219,0.108c-0.109-0.108-0.109-0.108-0.327-0.108l0.109-0.109v-0.109c-0.327-0.109,0-0.218,0.108-0.436
				c0-0.109,0-0.219-0.108-0.219l0.437-0.218c0.218-0.218,0.326-0.108,0.436-0.326c0.327,0.108,0.219-0.328,0.545-0.437
				c0.109,0,0.219,0,0.219,0c0.108,0,0.218-0.109,0.326-0.109c0.109,0,0.219,0,0.328-0.109c0.108-0.108,0.218-0.218,0.326-0.326
				c0.109-0.109,0.219-0.219,0.219-0.219c0-0.109,0-0.219,0-0.327c0.109,0,0.218,0,0.327-0.108c0.109-0.109,0.109-0.219-0.109-0.219
				c0,0-0.108,0-0.218,0l0.437-0.436l0.108-0.437h-0.108v-0.218h-0.327c0.108-0.109,0.218-0.327,0.327-0.327
				c0.108-0.109,0.327-0.109,0.436-0.327c-0.327,0.109-0.763,0.327-0.981,0.654l-0.327,0.436v-0.108
				c-0.327,0.108-0.327,0.327-0.437,0.327h-0.108c0.108,0-0.546,0-0.437,0c-0.218,0-0.326-0.219-0.545-0.327
				c-0.109-0.109-0.218-0.219-0.327-0.109l-0.654-0.437c0.109-0.108,0.109-0.108,0-0.218c-0.108-0.108-0.218-0.108-0.437-0.218
				c-0.217-0.218-0.217-0.437-0.326-0.763c0-0.219-0.109-0.219-0.109-0.546c0-0.108,0-0.218-0.108-0.218
				c-0.109-0.109-0.219-0.218-0.327-0.327c-0.109-0.108-0.327-0.328-0.546-0.328c-0.218,0-0.437,0.109-0.654,0.109
				s-0.436-0.218-0.653-0.326c-0.109,0-0.327,0-0.437,0c0-0.109,0-0.219-0.109-0.219c-0.108-0.108-0.327,0-0.436,0
				c-0.109,0-0.219-0.108-0.327-0.108s-0.545,0-0.654,0.108C48.597,41.071,48.597,41.18,48.597,41.18L48.597,41.18z M72.583,37.691
				c0.327,0.326,0.763,0.763,1.199,0.872c-0.108-0.218-0.218-0.218-0.327-0.328C73.237,38.127,72.801,37.8,72.583,37.691
				L72.583,37.691z M69.966,36.383l-0.108-0.219c0.108,0.109,0.326,0.109,0.326,0.219s0,0.218,0.11,0.218
				c0,0.218,0.326,0.654,0.545,0.654c0.109,0,0.109,0,0.109,0l-0.219-0.654c-0.109-0.108-0.218,0-0.327-0.218l-0.653-0.872
				c0-0.109-0.22-0.219-0.22-0.328c0.11-0.108,0.22-0.108,0.328-0.108l-0.654-0.545c-0.108-0.109-0.218-0.219-0.327-0.109
				c-0.109,0-0.218,0.219-0.218,0.327c-0.109,0.109-0.109,0.218-0.109,0.327c0,0.108,0.218,0.327,0.327,0.437l0.545,0.436
				C69.64,36.164,69.749,36.273,69.966,36.383L69.966,36.383z M78.688,36.273c-0.109-0.545-0.437-0.981-0.764-1.309l-0.544-0.436
				c-0.219-0.219-0.437-0.654-0.764-0.981c-0.327-0.328-0.654-0.436-0.981-0.654l-0.763-0.545l-0.982-0.872
				c-0.217-0.219-0.545-0.545-0.763-0.764c-0.218-0.327-0.108-0.436-0.218-0.545s-0.327-0.219-0.545-0.219v-0.108l-0.219-0.109
				c0.11-0.326-0.109-0.218-0.218-0.437c-0.108-0.108-0.108-0.218-0.218-0.436c-0.218-0.218-0.437-0.436-0.654-0.545l-1.199-0.653
				c-0.437-0.22-0.981-0.546-1.418-0.546c-0.327,0-0.544,0.218-0.872,0.218c-0.326,0.108-0.98,0-1.199,0.328
				c-0.218,0.217,0.327,0.763,0.545,0.871l0.546,0.545c0.108,0.109,0.218,0.218,0.326,0.437c0.11,0.109,0.437,0.327,0.546,0.436
				c0.108,0.109-0.109,0.219,0.108,0.437c0.109,0.218,0.437,0.436,0.546,0.654c0,0.109,0.109,0.327,0.218,0.437
				c0.109,0.108,0.218,0,0.326,0c0.22,0,0.654-0.327,0.765-0.219c0.108,0.109,0.654,0.545,0.763,0.764
				c0.109,0.108,0.218,0.218,0.218,0.327c0,0.218-0.545,0-0.436,0.218c0,0.109,0.327,0.219,0.436,0.327l0.437,0.326l0.436,0.328
				c0.11,0.108,0.219,0.327,0.327,0.327c0.218,0.109,0.327-0.219,0.546,0c0.326,0.218,0.654,0.654,0.98,0.981
				c0.219,0.108,0.327,0.108,0.545,0.218c0.219,0.108,0.328,0.218,0.437,0.327c0.327,0.109,0.327,0,0.654,0.327
				c0.437,0.327,0.872,0.764,1.199,1.198c0.109,0.109,0.546,0.546,0.654,0.546h0.109l0.437-0.218l0,0c0-0.109,0-0.219,0-0.328
				c0-0.108,0.108-0.108,0.108-0.326c0-0.108,0-0.327,0.108-0.327C78.361,36.056,78.579,36.273,78.688,36.273L78.688,36.273z
				 M70.402,27.551c0-0.109,0-0.218-0.108-0.327c-0.219-0.327-0.437-0.436-0.765-0.545c-0.108,0-0.435-0.108-0.435,0
				c-0.109,0.109,0.326,0.437,0.435,0.437c0.11,0.108,0.22,0.108,0.328,0.218C70.075,27.441,70.184,27.441,70.402,27.551
				L70.402,27.551z M57.319,24.716c0.436,0,0.653,0,1.09,0.219c0.436,0.109,0.654,0.327,1.09,0.327l-0.545-0.546l0.327-0.217
				c-0.108-0.109-0.218-0.109-0.327-0.219s-0.109-0.109-0.109-0.218c-0.108,0-0.218,0-0.326,0c-0.219,0-0.328,0.108-0.546,0.218
				C57.536,24.39,57.319,24.499,57.319,24.716L57.319,24.716z M59.281,23.734c0,0.219-0.218,0.219-0.327,0.328
				c0,0,0,0.108,0.109,0.108c0.109,0.109,0.654,0.109,0.763,0.219c0.327,0,0.327-0.219,0.764-0.219l0.545-0.108
				c0.437,0,1.091-0.109,1.526-0.328c-0.109-0.218-0.218-0.218-0.545-0.326c-0.437-0.108-0.764-0.108-1.199,0
				c-0.327,0.108-0.327,0.218-0.873,0.326H59.281L59.281,23.734z M52.194,81.304C44.344,79.667,53.829,81.63,52.194,81.304
				L52.194,81.304z"/>
			<path fill="#FFFFFF" d="M72.91,21.555c-15.81-8.723-35.436-3.054-43.83,12.538c-8.396,15.592-2.399,35.435,13.411,44.049
				c15.809,8.723,35.434,3.053,43.83-12.539C94.717,50.011,88.72,30.168,72.91,21.555z M85.23,65.058
				C77.162,80.104,58.19,85.556,42.927,77.16S21.884,49.794,30.062,34.639c8.067-15.047,27.039-20.499,42.304-12.103
				C87.629,30.932,93.407,50.011,85.23,65.058z"/>
		</g>
		<g>
			<path fill="#FFFFFF" d="M15.233,99.62v5.561c0,0.654-0.109,1.199-0.437,1.636c-0.218,0.437-0.654,0.872-1.199,1.09
				c-0.546,0.218-1.091,0.437-1.854,0.437c-1.09,0-1.854-0.327-2.507-0.872c-0.546-0.545-0.872-1.308-0.872-2.29V99.62h1.417v5.451
				c0,0.655,0.218,1.199,0.545,1.526c0.327,0.328,0.873,0.546,1.526,0.546c1.309,0,1.964-0.654,1.964-2.072V99.62H15.233z"/>
			<path fill="#FFFFFF" d="M24.501,108.124h-1.745l-4.252-6.868l0,0v0.327c0.109,0.764,0.109,1.418,0.109,1.962v4.579h-1.309v-8.612
				h1.744l4.253,6.759l0,0c0-0.107,0-0.436,0-0.98c0-0.546,0-0.98,0-1.309v-4.47h1.308v8.612H24.501z"/>
			<path fill="#FFFFFF" d="M26.572,108.124v-8.612h1.417v8.612H26.572z"/>
			<path fill="#FFFFFF" d="M33.223,108.124h-1.417v-7.413h-2.508v-1.199h6.433v1.199h-2.508V108.124L33.223,108.124z"/>
			<path fill="#FFFFFF" d="M41.836,108.124H36.93v-8.612h4.906v1.199h-3.488v2.29h3.271v1.199h-3.271v2.726h3.488V108.124z"/>
			<path fill="#FFFFFF" d="M50.559,103.763c0,1.418-0.436,2.508-1.199,3.271c-0.763,0.764-1.963,1.09-3.38,1.09h-2.398v-8.612h2.616
				c1.418,0,2.399,0.327,3.162,1.091C50.231,101.365,50.559,102.455,50.559,103.763z M49.142,103.872
				c0-2.072-0.981-3.053-2.835-3.053h-1.199v6.215h0.981C48.051,106.926,49.142,105.944,49.142,103.872z"/>
			<path fill="#FFFFFF" d="M62.661,108.124h-1.744l-4.252-6.868l0,0v0.327c0.108,0.764,0.108,1.418,0.108,1.962v4.579h-1.309v-8.612
				h1.745l4.251,6.759l0,0c0-0.107,0-0.436,0-0.98c0-0.546,0-0.98,0-1.309v-4.47h1.31L62.661,108.124L62.661,108.124z"/>
			<path fill="#FFFFFF" d="M70.294,108.124l-0.873-2.397H66.15l-0.872,2.397h-1.527l3.162-8.612h1.526l3.163,8.612H70.294
				L70.294,108.124z M68.985,104.526l-0.764-2.29c-0.109-0.108-0.109-0.437-0.218-0.763c-0.108-0.327-0.219-0.545-0.219-0.763
				c-0.108,0.436-0.218,0.98-0.436,1.525l-0.763,2.29H68.985L68.985,104.526z"/>
			<path fill="#FFFFFF" d="M75.091,108.124h-1.417v-7.413h-2.508v-1.199h6.433v1.199h-2.508V108.124L75.091,108.124z"/>
			<path fill="#FFFFFF" d="M78.906,108.124v-8.612h1.418v8.612H78.906z"/>
			<path fill="#FFFFFF" d="M90.137,103.872c0,1.418-0.326,2.508-1.091,3.271c-0.654,0.763-1.635,1.199-2.942,1.199
				c-1.309,0-2.29-0.437-2.944-1.199c-0.654-0.764-1.091-1.854-1.091-3.271c0-1.417,0.328-2.507,1.091-3.27
				c0.654-0.764,1.744-1.091,2.944-1.091c1.308,0,2.288,0.437,2.942,1.199C89.811,101.365,90.137,102.455,90.137,103.872z
				 M83.596,103.872c0,1.091,0.218,1.854,0.654,2.398c0.436,0.546,1.089,0.873,1.854,0.873c0.871,0,1.417-0.218,1.853-0.764
				c0.436-0.545,0.655-1.309,0.655-2.398s-0.22-1.854-0.655-2.398s-1.09-0.764-1.853-0.764c-0.873,0-1.526,0.219-1.854,0.764
				C83.813,102.019,83.596,102.782,83.596,103.872z"/>
			<path fill="#FFFFFF" d="M98.968,108.124h-1.744l-4.251-6.868l0,0v0.327c0.108,0.764,0.108,1.418,0.108,1.962v4.579h-1.309v-8.612
				h1.744l4.252,6.759l0,0c0-0.107,0-0.436,0-0.98c0-0.546,0-0.98,0-1.309v-4.47h1.31v8.612H98.968z"/>
			<path fill="#FFFFFF" d="M106.164,105.835c0,0.763-0.327,1.309-0.872,1.745c-0.545,0.436-1.309,0.653-2.289,0.653
				c-0.981,0-1.744-0.109-2.398-0.436v-1.309c0.436,0.218,0.763,0.327,1.199,0.437c0.436,0.108,0.872,0.108,1.199,0.108
				c0.544,0,0.98-0.108,1.199-0.327c0.218-0.218,0.436-0.544,0.436-0.872c0-0.327-0.108-0.545-0.326-0.764
				c-0.219-0.218-0.765-0.436-1.527-0.762c-0.763-0.328-1.309-0.655-1.636-1.091c-0.326-0.437-0.436-0.872-0.436-1.419
				c0-0.762,0.218-1.308,0.763-1.743c0.546-0.437,1.2-0.654,2.071-0.654c0.873,0,1.636,0.218,2.509,0.546l-0.437,1.09
				c-0.763-0.327-1.417-0.436-2.072-0.436c-0.435,0-0.763,0.108-0.98,0.326s-0.327,0.437-0.327,0.763c0,0.219,0,0.437,0.109,0.545
				c0.108,0.11,0.218,0.328,0.436,0.437c0.219,0.109,0.654,0.328,1.199,0.546c0.654,0.218,1.091,0.544,1.418,0.763
				s0.545,0.437,0.654,0.763C106.164,105.071,106.164,105.399,106.164,105.835z"/>
		</g>
	</g>
</g>
<g id="Layer_2">
</g>
<g id="Layer_3">
</g>
</svg>
