<svg width="451" height="178" viewBox="0 0 451 178" fill="none" xmlns="http://www.w3.org/2000/svg">
<path d="M422.912 44H428C439.046 44 448 52.9543 448 64V155C448 166.046 439.046 175 428 175H23C11.9543 175 3 166.046 3 155V64C3 52.9543 11.9543 44 23 44H28.0881" stroke="white" stroke-width="5"/>
<path d="M38.156 92.064H41.768V112H38.156V92.064ZM53.9257 97.496C57.3044 97.496 58.9937 99.4373 58.9937 103.32V112H55.4937V103.488C55.4937 102.368 55.279 101.556 54.8497 101.052C54.4204 100.529 53.7577 100.268 52.8617 100.268C51.7977 100.268 50.939 100.613 50.2857 101.304C49.6324 101.976 49.3057 102.872 49.3057 103.992V112H45.8337V101.864C45.8337 100.371 45.759 99.036 45.6097 97.86H48.8857L49.1377 100.184C49.623 99.3253 50.2764 98.6627 51.0977 98.196C51.9377 97.7293 52.8804 97.496 53.9257 97.496ZM76.2288 91.392V112H72.7848V109.732C72.3554 110.516 71.7394 111.132 70.9368 111.58C70.1341 112.009 69.2194 112.224 68.1928 112.224C66.9794 112.224 65.8968 111.916 64.9448 111.3C63.9928 110.684 63.2461 109.816 62.7048 108.696C62.1821 107.557 61.9208 106.26 61.9208 104.804C61.9208 103.348 62.1821 102.069 62.7048 100.968C63.2274 99.8667 63.9648 99.0173 64.9168 98.42C65.8688 97.804 66.9608 97.496 68.1928 97.496C69.2008 97.496 70.0968 97.7107 70.8808 98.14C71.6834 98.5507 72.2994 99.1387 72.7288 99.904V91.392H76.2288ZM69.1168 109.48C70.2741 109.48 71.1701 109.079 71.8048 108.276C72.4581 107.473 72.7848 106.335 72.7848 104.86C72.7848 103.385 72.4674 102.247 71.8328 101.444C71.1981 100.641 70.3021 100.24 69.1448 100.24C67.9688 100.24 67.0541 100.641 66.4008 101.444C65.7661 102.228 65.4488 103.348 65.4488 104.804C65.4488 106.279 65.7661 107.427 66.4008 108.248C67.0541 109.069 67.9594 109.48 69.1168 109.48ZM92.4167 105.112H82.6727C82.7474 106.624 83.1207 107.744 83.7927 108.472C84.4834 109.181 85.5007 109.536 86.8447 109.536C88.3941 109.536 89.8314 109.032 91.1567 108.024L92.1647 110.432C91.4927 110.973 90.6621 111.412 89.6727 111.748C88.7021 112.065 87.7127 112.224 86.7047 112.224C84.3901 112.224 82.5701 111.571 81.2447 110.264C79.9194 108.957 79.2567 107.165 79.2567 104.888C79.2567 103.451 79.5461 102.172 80.1247 101.052C80.7034 99.932 81.5154 99.064 82.5607 98.448C83.6061 97.8133 84.7914 97.496 86.1167 97.496C88.0581 97.496 89.5887 98.1307 90.7087 99.4C91.8474 100.651 92.4167 102.377 92.4167 104.58V105.112ZM86.2007 100.016C85.2674 100.016 84.5021 100.296 83.9047 100.856C83.3261 101.397 82.9527 102.191 82.7847 103.236H89.3647C89.2527 102.172 88.9261 101.369 88.3847 100.828C87.8621 100.287 87.1341 100.016 86.2007 100.016ZM109.047 112H104.875L101.067 107.212L97.2585 112H93.1145L99.0505 104.72L93.4785 97.86H97.6225L101.067 102.256L104.511 97.86H108.683L103.111 104.72L109.047 112ZM134.533 112.252C132.928 111.692 131.547 110.889 130.389 109.844C128.653 111.431 126.656 112.224 124.397 112.224C123.053 112.224 121.859 112 120.813 111.552C119.787 111.085 118.984 110.441 118.405 109.62C117.845 108.799 117.565 107.856 117.565 106.792C117.565 105.579 117.901 104.505 118.573 103.572C119.245 102.639 120.319 101.761 121.793 100.94C121.047 100.119 120.505 99.3627 120.169 98.672C119.833 97.9813 119.665 97.272 119.665 96.544C119.665 95.144 120.169 94.0147 121.177 93.156C122.185 92.2973 123.501 91.868 125.125 91.868C126.619 91.868 127.813 92.26 128.709 93.044C129.605 93.828 130.053 94.8733 130.053 96.18C130.053 97.188 129.755 98.1027 129.157 98.924C128.579 99.7453 127.617 100.548 126.273 101.332L130.221 105.42C131.005 103.833 131.435 102.032 131.509 100.016H134.477C134.347 102.928 133.619 105.439 132.293 107.548C133.395 108.575 134.72 109.34 136.269 109.844L134.533 112.252ZM125.153 94.276C124.463 94.276 123.903 94.4813 123.473 94.892C123.063 95.3027 122.857 95.8533 122.857 96.544C122.857 96.9733 122.969 97.3933 123.193 97.804C123.436 98.2147 123.875 98.7747 124.509 99.484C125.499 98.9053 126.189 98.3827 126.581 97.916C126.992 97.4307 127.197 96.8987 127.197 96.32C127.197 95.704 127.011 95.2093 126.637 94.836C126.264 94.4627 125.769 94.276 125.153 94.276ZM120.981 106.596C120.981 107.492 121.299 108.201 121.933 108.724C122.568 109.247 123.427 109.508 124.509 109.508C125.965 109.508 127.281 108.967 128.457 107.884L123.557 102.816C122.661 103.376 122.008 103.955 121.597 104.552C121.187 105.149 120.981 105.831 120.981 106.596ZM145.562 92.064H152.898C156.165 92.064 158.694 92.932 160.486 94.668C162.297 96.404 163.202 98.8493 163.202 102.004C163.202 105.177 162.297 107.641 160.486 109.396C158.694 111.132 156.165 112 152.898 112H145.562V92.064ZM152.674 109.06C157.266 109.06 159.562 106.708 159.562 102.004C159.562 97.3373 157.266 95.004 152.674 95.004H149.174V109.06H152.674ZM180.162 97.86V112H176.718V109.732C176.289 110.516 175.673 111.132 174.87 111.58C174.068 112.009 173.153 112.224 172.126 112.224C170.894 112.224 169.802 111.925 168.85 111.328C167.898 110.731 167.161 109.881 166.638 108.78C166.116 107.679 165.854 106.4 165.854 104.944C165.854 103.488 166.116 102.2 166.638 101.08C167.18 99.9413 167.926 99.064 168.878 98.448C169.83 97.8133 170.913 97.496 172.126 97.496C173.153 97.496 174.068 97.72 174.87 98.168C175.673 98.5973 176.289 99.204 176.718 99.988V97.86H180.162ZM173.078 109.48C174.236 109.48 175.132 109.079 175.766 108.276C176.401 107.473 176.718 106.344 176.718 104.888C176.718 103.395 176.401 102.247 175.766 101.444C175.132 100.641 174.226 100.24 173.05 100.24C171.893 100.24 170.988 100.66 170.334 101.5C169.7 102.321 169.382 103.469 169.382 104.944C169.382 106.4 169.7 107.52 170.334 108.304C170.988 109.088 171.902 109.48 173.078 109.48ZM189.154 112.224C186.597 112.224 184.562 111.627 183.05 110.432L184.03 107.968C185.542 109.088 187.269 109.648 189.21 109.648C190.05 109.648 190.694 109.508 191.142 109.228C191.609 108.948 191.842 108.556 191.842 108.052C191.842 107.623 191.684 107.287 191.366 107.044C191.049 106.783 190.508 106.559 189.742 106.372L187.39 105.84C184.814 105.28 183.526 103.964 183.526 101.892C183.526 101.033 183.769 100.277 184.254 99.624C184.74 98.952 185.421 98.4293 186.298 98.056C187.176 97.6827 188.193 97.496 189.35 97.496C190.358 97.496 191.329 97.6547 192.262 97.972C193.196 98.2707 194.017 98.7093 194.726 99.288L193.69 101.668C192.272 100.623 190.816 100.1 189.322 100.1C188.52 100.1 187.894 100.249 187.446 100.548C186.998 100.847 186.774 101.257 186.774 101.78C186.774 102.191 186.905 102.517 187.166 102.76C187.446 103.003 187.913 103.208 188.566 103.376L190.974 103.908C192.374 104.225 193.392 104.72 194.026 105.392C194.68 106.045 195.006 106.904 195.006 107.968C195.006 109.275 194.484 110.311 193.438 111.076C192.393 111.841 190.965 112.224 189.154 112.224ZM206.094 97.496C209.472 97.496 211.162 99.4373 211.162 103.32V112H207.662V103.488C207.662 102.368 207.447 101.556 207.018 101.052C206.588 100.529 205.926 100.268 205.03 100.268C203.966 100.268 203.107 100.613 202.454 101.304C201.8 101.976 201.474 102.872 201.474 103.992V112H198.002V91.392H201.474V99.904C201.959 99.1387 202.603 98.5507 203.406 98.14C204.208 97.7107 205.104 97.496 206.094 97.496ZM222.937 97.496C224.169 97.496 225.251 97.804 226.185 98.42C227.137 99.0173 227.874 99.8667 228.397 100.968C228.919 102.069 229.181 103.348 229.181 104.804C229.181 106.26 228.91 107.557 228.369 108.696C227.846 109.816 227.109 110.684 226.157 111.3C225.223 111.916 224.15 112.224 222.937 112.224C221.891 112.224 220.958 112 220.137 111.552C219.334 111.104 218.727 110.479 218.317 109.676V112H214.873V91.392H218.345V99.988C218.774 99.204 219.39 98.5973 220.193 98.168C220.995 97.72 221.91 97.496 222.937 97.496ZM222.013 109.48C223.17 109.48 224.066 109.069 224.701 108.248C225.335 107.427 225.653 106.279 225.653 104.804C225.653 103.348 225.335 102.228 224.701 101.444C224.066 100.641 223.161 100.24 221.985 100.24C220.809 100.24 219.903 100.641 219.269 101.444C218.634 102.247 218.317 103.385 218.317 104.86C218.317 106.353 218.634 107.501 219.269 108.304C219.903 109.088 220.818 109.48 222.013 109.48ZM238.648 112.224C237.211 112.224 235.941 111.925 234.84 111.328C233.757 110.731 232.917 109.881 232.32 108.78C231.741 107.66 231.452 106.353 231.452 104.86C231.452 103.367 231.741 102.069 232.32 100.968C232.917 99.848 233.757 98.9893 234.84 98.392C235.941 97.7947 237.211 97.496 238.648 97.496C240.067 97.496 241.317 97.7947 242.4 98.392C243.483 98.9893 244.313 99.848 244.892 100.968C245.489 102.069 245.788 103.367 245.788 104.86C245.788 106.353 245.489 107.66 244.892 108.78C244.313 109.881 243.483 110.731 242.4 111.328C241.317 111.925 240.067 112.224 238.648 112.224ZM238.62 109.48C239.815 109.48 240.72 109.097 241.336 108.332C241.971 107.548 242.288 106.391 242.288 104.86C242.288 103.348 241.971 102.2 241.336 101.416C240.701 100.613 239.805 100.212 238.648 100.212C237.472 100.212 236.567 100.613 235.932 101.416C235.297 102.2 234.98 103.348 234.98 104.86C234.98 106.391 235.288 107.548 235.904 108.332C236.539 109.097 237.444 109.48 238.62 109.48ZM262.33 97.86V112H258.886V109.732C258.457 110.516 257.841 111.132 257.038 111.58C256.236 112.009 255.321 112.224 254.294 112.224C253.062 112.224 251.97 111.925 251.018 111.328C250.066 110.731 249.329 109.881 248.806 108.78C248.284 107.679 248.022 106.4 248.022 104.944C248.022 103.488 248.284 102.2 248.806 101.08C249.348 99.9413 250.094 99.064 251.046 98.448C251.998 97.8133 253.081 97.496 254.294 97.496C255.321 97.496 256.236 97.72 257.038 98.168C257.841 98.5973 258.457 99.204 258.886 99.988V97.86H262.33ZM255.246 109.48C256.404 109.48 257.3 109.079 257.934 108.276C258.569 107.473 258.886 106.344 258.886 104.888C258.886 103.395 258.569 102.247 257.934 101.444C257.3 100.641 256.394 100.24 255.218 100.24C254.061 100.24 253.156 100.66 252.502 101.5C251.868 102.321 251.55 103.469 251.55 104.944C251.55 106.4 251.868 107.52 252.502 108.304C253.156 109.088 254.07 109.48 255.246 109.48ZM273.758 97.524C274.3 97.524 274.766 97.5987 275.158 97.748L275.13 100.94C274.533 100.697 273.917 100.576 273.282 100.576C272.088 100.576 271.173 100.921 270.538 101.612C269.922 102.303 269.614 103.217 269.614 104.356V112H266.142V101.864C266.142 100.371 266.068 99.036 265.918 97.86H269.194L269.474 100.352C269.829 99.4373 270.389 98.7373 271.154 98.252C271.92 97.7667 272.788 97.524 273.758 97.524ZM290.358 91.392V112H286.914V109.732C286.484 110.516 285.868 111.132 285.066 111.58C284.263 112.009 283.348 112.224 282.322 112.224C281.108 112.224 280.026 111.916 279.074 111.3C278.122 110.684 277.375 109.816 276.834 108.696C276.311 107.557 276.05 106.26 276.05 104.804C276.05 103.348 276.311 102.069 276.834 100.968C277.356 99.8667 278.094 99.0173 279.046 98.42C279.998 97.804 281.09 97.496 282.322 97.496C283.33 97.496 284.226 97.7107 285.01 98.14C285.812 98.5507 286.428 99.1387 286.858 99.904V91.392H290.358ZM283.246 109.48C284.403 109.48 285.299 109.079 285.934 108.276C286.587 107.473 286.914 106.335 286.914 104.86C286.914 103.385 286.596 102.247 285.962 101.444C285.327 100.641 284.431 100.24 283.274 100.24C282.098 100.24 281.183 100.641 280.53 101.444C279.895 102.228 279.578 103.348 279.578 104.804C279.578 106.279 279.895 107.427 280.53 108.248C281.183 109.069 282.088 109.48 283.246 109.48ZM315.321 109.06V112H301.937V109.34L308.713 102.032C309.516 101.155 310.104 100.352 310.477 99.624C310.851 98.896 311.037 98.1773 311.037 97.468C311.037 96.5533 310.767 95.8627 310.225 95.396C309.703 94.9293 308.947 94.696 307.957 94.696C306.203 94.696 304.401 95.3867 302.553 96.768L301.349 94.136C302.133 93.4267 303.141 92.8667 304.373 92.456C305.605 92.0267 306.847 91.812 308.097 91.812C310.095 91.812 311.672 92.3067 312.829 93.296C314.005 94.2667 314.593 95.5827 314.593 97.244C314.593 98.3827 314.341 99.456 313.837 100.464C313.352 101.472 312.531 102.601 311.373 103.852L306.473 109.06H315.321ZM325.166 112.252C322.795 112.252 320.984 111.384 319.734 109.648C318.502 107.893 317.886 105.345 317.886 102.004C317.886 98.7187 318.502 96.208 319.734 94.472C320.984 92.736 322.795 91.868 325.166 91.868C327.536 91.868 329.338 92.736 330.57 94.472C331.82 96.1893 332.446 98.7 332.446 102.004C332.446 105.327 331.82 107.865 330.57 109.62C329.338 111.375 327.536 112.252 325.166 112.252ZM325.166 109.424C326.454 109.424 327.387 108.836 327.966 107.66C328.563 106.465 328.862 104.58 328.862 102.004C328.862 99.4653 328.563 97.6173 327.966 96.46C327.387 95.284 326.454 94.696 325.166 94.696C323.878 94.696 322.935 95.284 322.338 96.46C321.759 97.6173 321.47 99.4653 321.47 102.004C321.47 104.58 321.759 106.465 322.338 107.66C322.935 108.836 323.878 109.424 325.166 109.424ZM348.927 109.06V112H335.543V109.34L342.319 102.032C343.121 101.155 343.709 100.352 344.083 99.624C344.456 98.896 344.643 98.1773 344.643 97.468C344.643 96.5533 344.372 95.8627 343.831 95.396C343.308 94.9293 342.552 94.696 341.563 94.696C339.808 94.696 338.007 95.3867 336.159 96.768L334.955 94.136C335.739 93.4267 336.747 92.8667 337.979 92.456C339.211 92.0267 340.452 91.812 341.703 91.812C343.7 91.812 345.277 92.3067 346.435 93.296C347.611 94.2667 348.199 95.5827 348.199 97.244C348.199 98.3827 347.947 99.456 347.443 100.464C346.957 101.472 346.136 102.601 344.979 103.852L340.079 109.06H348.927ZM358.771 112.252C356.4 112.252 354.59 111.384 353.339 109.648C352.107 107.893 351.491 105.345 351.491 102.004C351.491 98.7187 352.107 96.208 353.339 94.472C354.59 92.736 356.4 91.868 358.771 91.868C361.142 91.868 362.943 92.736 364.175 94.472C365.426 96.1893 366.051 98.7 366.051 102.004C366.051 105.327 365.426 107.865 364.175 109.62C362.943 111.375 361.142 112.252 358.771 112.252ZM358.771 109.424C360.059 109.424 360.992 108.836 361.571 107.66C362.168 106.465 362.467 104.58 362.467 102.004C362.467 99.4653 362.168 97.6173 361.571 96.46C360.992 95.284 360.059 94.696 358.771 94.696C357.483 94.696 356.54 95.284 355.943 96.46C355.364 97.6173 355.075 99.4653 355.075 102.004C355.075 104.58 355.364 106.465 355.943 107.66C356.54 108.836 357.483 109.424 358.771 109.424ZM369.092 103.04H377.52V105.84H369.092V103.04ZM394.81 109.06V112H381.426V109.34L388.202 102.032C389.004 101.155 389.592 100.352 389.966 99.624C390.339 98.896 390.526 98.1773 390.526 97.468C390.526 96.5533 390.255 95.8627 389.714 95.396C389.191 94.9293 388.435 94.696 387.446 94.696C385.691 94.696 383.89 95.3867 382.042 96.768L380.838 94.136C381.622 93.4267 382.63 92.8667 383.862 92.456C385.094 92.0267 386.335 91.812 387.586 91.812C389.583 91.812 391.16 92.3067 392.318 93.296C393.494 94.2667 394.082 95.5827 394.082 97.244C394.082 98.3827 393.83 99.456 393.326 100.464C392.84 101.472 392.019 102.601 390.862 103.852L385.962 109.06H394.81ZM411.682 109.06V112H399.39V109.06H403.758V96.208L399.698 98.644V95.424L405.242 92.064H407.342V109.06H411.682Z" fill="#FFF119"/>
<path d="M33.694 133.336H40.492C42.1787 133.336 43.4913 133.747 44.43 134.568C45.3687 135.375 45.838 136.482 45.838 137.89C45.838 139.298 45.3613 140.413 44.408 141.234C43.4693 142.055 42.164 142.466 40.492 142.466H36.532V149H33.694V133.336ZM40.162 140.266C41.1447 140.266 41.8853 140.068 42.384 139.672C42.8973 139.261 43.154 138.675 43.154 137.912C43.154 137.135 42.9047 136.548 42.406 136.152C41.9073 135.741 41.1593 135.536 40.162 135.536H36.532V140.266H40.162ZM58.3661 137.89V149H55.6601V147.218C55.3228 147.834 54.8388 148.318 54.2081 148.67C53.5775 149.007 52.8588 149.176 52.0521 149.176C51.0841 149.176 50.2261 148.941 49.4781 148.472C48.7301 148.003 48.1508 147.335 47.7401 146.47C47.3295 145.605 47.1241 144.6 47.1241 143.456C47.1241 142.312 47.3295 141.3 47.7401 140.42C48.1655 139.525 48.7521 138.836 49.5001 138.352C50.2481 137.853 51.0988 137.604 52.0521 137.604C52.8588 137.604 53.5775 137.78 54.2081 138.132C54.8388 138.469 55.3228 138.946 55.6601 139.562V137.89H58.3661ZM52.8001 147.02C53.7095 147.02 54.4135 146.705 54.9121 146.074C55.4108 145.443 55.6601 144.556 55.6601 143.412C55.6601 142.239 55.4108 141.337 54.9121 140.706C54.4135 140.075 53.7021 139.76 52.7781 139.76C51.8688 139.76 51.1575 140.09 50.6441 140.75C50.1455 141.395 49.8961 142.297 49.8961 143.456C49.8961 144.6 50.1455 145.48 50.6441 146.096C51.1575 146.712 51.8761 147.02 52.8001 147.02ZM67.3452 137.626C67.7706 137.626 68.1372 137.685 68.4452 137.802L68.4232 140.31C67.9539 140.119 67.4699 140.024 66.9712 140.024C66.0326 140.024 65.3139 140.295 64.8152 140.838C64.3312 141.381 64.0892 142.099 64.0892 142.994V149H61.3612V141.036C61.3612 139.863 61.3026 138.814 61.1852 137.89H63.7592L63.9792 139.848C64.2579 139.129 64.6979 138.579 65.2992 138.198C65.9006 137.817 66.5826 137.626 67.3452 137.626ZM74.4842 139.958V144.93C74.4842 146.235 75.0929 146.888 76.3102 146.888C76.6476 146.888 77.0142 146.829 77.4102 146.712V148.89C76.9262 149.066 76.3396 149.154 75.6502 149.154C74.3889 149.154 73.4209 148.802 72.7462 148.098C72.0716 147.394 71.7342 146.382 71.7342 145.062V139.958H69.6002V137.89H71.7342V135.184L74.4842 134.26V137.89H77.4322V139.958H74.4842ZM85.6802 137.604C88.3348 137.604 89.6622 139.129 89.6622 142.18V149H86.9122V142.312C86.9122 141.432 86.7435 140.794 86.4062 140.398C86.0688 139.987 85.5482 139.782 84.8442 139.782C84.0082 139.782 83.3335 140.053 82.8202 140.596C82.3068 141.124 82.0502 141.828 82.0502 142.708V149H79.3222V141.036C79.3222 139.863 79.2635 138.814 79.1462 137.89H81.7202L81.9182 139.716C82.2995 139.041 82.8128 138.521 83.4582 138.154C84.1182 137.787 84.8588 137.604 85.6802 137.604ZM102.302 143.588H94.646C94.7047 144.776 94.998 145.656 95.526 146.228C96.0687 146.785 96.868 147.064 97.924 147.064C99.1414 147.064 100.271 146.668 101.312 145.876L102.104 147.768C101.576 148.193 100.923 148.538 100.146 148.802C99.3834 149.051 98.606 149.176 97.814 149.176C95.9954 149.176 94.5654 148.663 93.524 147.636C92.4827 146.609 91.962 145.201 91.962 143.412C91.962 142.283 92.1894 141.278 92.644 140.398C93.0987 139.518 93.7367 138.836 94.558 138.352C95.3794 137.853 96.3107 137.604 97.352 137.604C98.8774 137.604 100.08 138.103 100.96 139.1C101.855 140.083 102.302 141.439 102.302 143.17V143.588ZM97.418 139.584C96.6847 139.584 96.0834 139.804 95.614 140.244C95.1594 140.669 94.866 141.293 94.734 142.114H99.904C99.816 141.278 99.5594 140.647 99.134 140.222C98.7234 139.797 98.1514 139.584 97.418 139.584ZM110.615 137.626C111.04 137.626 111.407 137.685 111.715 137.802L111.693 140.31C111.223 140.119 110.739 140.024 110.241 140.024C109.302 140.024 108.583 140.295 108.085 140.838C107.601 141.381 107.359 142.099 107.359 142.994V149H104.631V141.036C104.631 139.863 104.572 138.814 104.455 137.89H107.029L107.249 139.848C107.527 139.129 107.967 138.579 108.569 138.198C109.17 137.817 109.852 137.626 110.615 137.626ZM117.209 149.176C115.199 149.176 113.601 148.707 112.413 147.768L113.183 145.832C114.371 146.712 115.727 147.152 117.253 147.152C117.913 147.152 118.419 147.042 118.771 146.822C119.137 146.602 119.321 146.294 119.321 145.898C119.321 145.561 119.196 145.297 118.947 145.106C118.697 144.901 118.272 144.725 117.671 144.578L115.823 144.16C113.799 143.72 112.787 142.686 112.787 141.058C112.787 140.383 112.977 139.789 113.359 139.276C113.74 138.748 114.275 138.337 114.965 138.044C115.654 137.751 116.453 137.604 117.363 137.604C118.155 137.604 118.917 137.729 119.651 137.978C120.384 138.213 121.029 138.557 121.587 139.012L120.773 140.882C119.658 140.061 118.514 139.65 117.341 139.65C116.71 139.65 116.219 139.767 115.867 140.002C115.515 140.237 115.339 140.559 115.339 140.97C115.339 141.293 115.441 141.549 115.647 141.74C115.867 141.931 116.233 142.092 116.747 142.224L118.639 142.642C119.739 142.891 120.538 143.28 121.037 143.808C121.55 144.321 121.807 144.996 121.807 145.832C121.807 146.859 121.396 147.673 120.575 148.274C119.753 148.875 118.631 149.176 117.209 149.176ZM130.518 137.604C133.173 137.604 134.5 139.129 134.5 142.18V149H131.75V142.312C131.75 141.432 131.581 140.794 131.244 140.398C130.907 139.987 130.386 139.782 129.682 139.782C128.846 139.782 128.171 140.053 127.658 140.596C127.145 141.124 126.888 141.828 126.888 142.708V149H124.16V132.808H126.888V139.496C127.269 138.895 127.775 138.433 128.406 138.11C129.037 137.773 129.741 137.604 130.518 137.604ZM137.416 137.89H140.144V149H137.416V137.89ZM140.298 132.852V135.558H137.24V132.852H140.298ZM149.488 137.604C150.442 137.604 151.285 137.853 152.018 138.352C152.766 138.836 153.346 139.525 153.756 140.42C154.182 141.3 154.394 142.312 154.394 143.456C154.394 144.6 154.189 145.605 153.778 146.47C153.368 147.335 152.788 148.003 152.04 148.472C151.307 148.941 150.456 149.176 149.488 149.176C148.682 149.176 147.963 149.007 147.332 148.67C146.702 148.318 146.218 147.834 145.88 147.218V153.752H143.152V141.036C143.152 139.863 143.094 138.814 142.976 137.89H145.55L145.77 139.804C146.064 139.115 146.54 138.579 147.2 138.198C147.86 137.802 148.623 137.604 149.488 137.604ZM148.74 147.02C149.664 147.02 150.376 146.712 150.874 146.096C151.373 145.48 151.622 144.6 151.622 143.456C151.622 142.297 151.373 141.395 150.874 140.75C150.376 140.09 149.672 139.76 148.762 139.76C147.824 139.76 147.105 140.075 146.606 140.706C146.108 141.337 145.858 142.239 145.858 143.412C145.858 144.571 146.108 145.465 146.606 146.096C147.105 146.712 147.816 147.02 148.74 147.02ZM160.865 149.176C158.855 149.176 157.257 148.707 156.069 147.768L156.839 145.832C158.027 146.712 159.383 147.152 160.909 147.152C161.569 147.152 162.075 147.042 162.427 146.822C162.793 146.602 162.977 146.294 162.977 145.898C162.977 145.561 162.852 145.297 162.603 145.106C162.353 144.901 161.928 144.725 161.327 144.578L159.479 144.16C157.455 143.72 156.443 142.686 156.443 141.058C156.443 140.383 156.633 139.789 157.015 139.276C157.396 138.748 157.931 138.337 158.621 138.044C159.31 137.751 160.109 137.604 161.019 137.604C161.811 137.604 162.573 137.729 163.307 137.978C164.04 138.213 164.685 138.557 165.243 139.012L164.429 140.882C163.314 140.061 162.17 139.65 160.997 139.65C160.366 139.65 159.875 139.767 159.523 140.002C159.171 140.237 158.995 140.559 158.995 140.97C158.995 141.293 159.097 141.549 159.303 141.74C159.523 141.931 159.889 142.092 160.403 142.224L162.295 142.642C163.395 142.891 164.194 143.28 164.693 143.808C165.206 144.321 165.463 144.996 165.463 145.832C165.463 146.859 165.052 147.673 164.231 148.274C163.409 148.875 162.287 149.176 160.865 149.176ZM173.853 137.89H176.581V149H173.853V137.89ZM176.735 132.852V135.558H173.677V132.852H176.735ZM185.948 137.604C188.602 137.604 189.93 139.129 189.93 142.18V149H187.18V142.312C187.18 141.432 187.011 140.794 186.674 140.398C186.336 139.987 185.816 139.782 185.112 139.782C184.276 139.782 183.601 140.053 183.088 140.596C182.574 141.124 182.318 141.828 182.318 142.708V149H179.59V141.036C179.59 139.863 179.531 138.814 179.414 137.89H181.988L182.186 139.716C182.567 139.041 183.08 138.521 183.726 138.154C184.386 137.787 185.126 137.604 185.948 137.604ZM202.381 139.958V144.93C202.381 146.235 202.989 146.888 204.207 146.888C204.544 146.888 204.911 146.829 205.307 146.712V148.89C204.823 149.066 204.236 149.154 203.547 149.154C202.285 149.154 201.317 148.802 200.643 148.098C199.968 147.394 199.631 146.382 199.631 145.062V139.958H197.497V137.89H199.631V135.184L202.381 134.26V137.89H205.329V139.958H202.381ZM213.577 137.604C216.231 137.604 217.559 139.129 217.559 142.18V149H214.809V142.312C214.809 141.432 214.64 140.794 214.303 140.398C213.965 139.987 213.445 139.782 212.741 139.782C211.905 139.782 211.23 140.053 210.717 140.596C210.203 141.124 209.947 141.828 209.947 142.708V149H207.219V132.808H209.947V139.496C210.328 138.895 210.834 138.433 211.465 138.11C212.095 137.773 212.799 137.604 213.577 137.604ZM230.199 143.588H222.543C222.601 144.776 222.895 145.656 223.423 146.228C223.965 146.785 224.765 147.064 225.821 147.064C227.038 147.064 228.167 146.668 229.209 145.876L230.001 147.768C229.473 148.193 228.82 148.538 228.043 148.802C227.28 149.051 226.503 149.176 225.711 149.176C223.892 149.176 222.462 148.663 221.421 147.636C220.379 146.609 219.859 145.201 219.859 143.412C219.859 142.283 220.086 141.278 220.541 140.398C220.995 139.518 221.633 138.836 222.455 138.352C223.276 137.853 224.207 137.604 225.249 137.604C226.774 137.604 227.977 138.103 228.857 139.1C229.751 140.083 230.199 141.439 230.199 143.17V143.588ZM225.315 139.584C224.581 139.584 223.98 139.804 223.511 140.244C223.056 140.669 222.763 141.293 222.631 142.114H227.801C227.713 141.278 227.456 140.647 227.031 140.222C226.62 139.797 226.048 139.584 225.315 139.584ZM238.762 133.336H244.526C247.093 133.336 249.08 134.018 250.488 135.382C251.911 136.746 252.622 138.667 252.622 141.146C252.622 143.639 251.911 145.575 250.488 146.954C249.08 148.318 247.093 149 244.526 149H238.762V133.336ZM244.35 146.69C247.958 146.69 249.762 144.842 249.762 141.146C249.762 137.479 247.958 135.646 244.35 135.646H241.6V146.69H244.35ZM265.046 143.588H257.39C257.449 144.776 257.742 145.656 258.27 146.228C258.813 146.785 259.612 147.064 260.668 147.064C261.886 147.064 263.015 146.668 264.056 145.876L264.848 147.768C264.32 148.193 263.668 148.538 262.89 148.802C262.128 149.051 261.35 149.176 260.558 149.176C258.74 149.176 257.31 148.663 256.268 147.636C255.227 146.609 254.706 145.201 254.706 143.412C254.706 142.283 254.934 141.278 255.388 140.398C255.843 139.518 256.481 138.836 257.302 138.352C258.124 137.853 259.055 137.604 260.096 137.604C261.622 137.604 262.824 138.103 263.704 139.1C264.599 140.083 265.046 141.439 265.046 143.17V143.588ZM260.162 139.584C259.429 139.584 258.828 139.804 258.358 140.244C257.904 140.669 257.61 141.293 257.478 142.114H262.648C262.56 141.278 262.304 140.647 261.878 140.222C261.468 139.797 260.896 139.584 260.162 139.584ZM272.413 149.176C271.254 149.176 270.25 148.941 269.399 148.472C268.548 148.003 267.896 147.343 267.441 146.492C266.986 145.627 266.759 144.615 266.759 143.456C266.759 142.297 266.994 141.278 267.463 140.398C267.947 139.518 268.622 138.836 269.487 138.352C270.367 137.853 271.379 137.604 272.523 137.604C273.315 137.604 274.078 137.729 274.811 137.978C275.559 138.227 276.153 138.572 276.593 139.012L275.823 140.948C275.354 140.567 274.855 140.281 274.327 140.09C273.799 139.885 273.278 139.782 272.765 139.782C271.768 139.782 270.99 140.097 270.433 140.728C269.876 141.344 269.597 142.239 269.597 143.412C269.597 144.585 269.868 145.48 270.411 146.096C270.968 146.712 271.753 147.02 272.765 147.02C273.278 147.02 273.799 146.917 274.327 146.712C274.855 146.507 275.354 146.213 275.823 145.832L276.593 147.768C276.124 148.208 275.515 148.553 274.767 148.802C274.019 149.051 273.234 149.176 272.413 149.176ZM289.065 137.89V149H286.359V147.218C286.022 147.834 285.538 148.318 284.907 148.67C284.277 149.007 283.558 149.176 282.751 149.176C281.783 149.176 280.925 148.941 280.177 148.472C279.429 148.003 278.85 147.335 278.439 146.47C278.029 145.605 277.823 144.6 277.823 143.456C277.823 142.312 278.029 141.3 278.439 140.42C278.865 139.525 279.451 138.836 280.199 138.352C280.947 137.853 281.798 137.604 282.751 137.604C283.558 137.604 284.277 137.78 284.907 138.132C285.538 138.469 286.022 138.946 286.359 139.562V137.89H289.065ZM283.499 147.02C284.409 147.02 285.113 146.705 285.611 146.074C286.11 145.443 286.359 144.556 286.359 143.412C286.359 142.239 286.11 141.337 285.611 140.706C285.113 140.075 284.401 139.76 283.477 139.76C282.568 139.76 281.857 140.09 281.343 140.75C280.845 141.395 280.595 142.297 280.595 143.456C280.595 144.6 280.845 145.48 281.343 146.096C281.857 146.712 282.575 147.02 283.499 147.02ZM302.686 132.808V149H299.98V147.218C299.643 147.834 299.159 148.318 298.528 148.67C297.898 149.007 297.179 149.176 296.372 149.176C295.419 149.176 294.568 148.934 293.82 148.45C293.072 147.966 292.486 147.284 292.06 146.404C291.65 145.509 291.444 144.49 291.444 143.346C291.444 142.202 291.65 141.197 292.06 140.332C292.471 139.467 293.05 138.799 293.798 138.33C294.546 137.846 295.404 137.604 296.372 137.604C297.164 137.604 297.868 137.773 298.484 138.11C299.115 138.433 299.599 138.895 299.936 139.496V132.808H302.686ZM297.098 147.02C298.008 147.02 298.712 146.705 299.21 146.074C299.724 145.443 299.98 144.549 299.98 143.39C299.98 142.231 299.731 141.337 299.232 140.706C298.734 140.075 298.03 139.76 297.12 139.76C296.196 139.76 295.478 140.075 294.964 140.706C294.466 141.322 294.216 142.202 294.216 143.346C294.216 144.505 294.466 145.407 294.964 146.052C295.478 146.697 296.189 147.02 297.098 147.02ZM315.406 143.588H307.75C307.808 144.776 308.102 145.656 308.63 146.228C309.172 146.785 309.972 147.064 311.028 147.064C312.245 147.064 313.374 146.668 314.416 145.876L315.208 147.768C314.68 148.193 314.027 148.538 313.25 148.802C312.487 149.051 311.71 149.176 310.918 149.176C309.099 149.176 307.669 148.663 306.628 147.636C305.586 146.609 305.066 145.201 305.066 143.412C305.066 142.283 305.293 141.278 305.748 140.398C306.202 139.518 306.84 138.836 307.662 138.352C308.483 137.853 309.414 137.604 310.456 137.604C311.981 137.604 313.184 138.103 314.064 139.1C314.958 140.083 315.406 141.439 315.406 143.17V143.588ZM310.522 139.584C309.788 139.584 309.187 139.804 308.718 140.244C308.263 140.669 307.97 141.293 307.838 142.114H313.008C312.92 141.278 312.663 140.647 312.238 140.222C311.827 139.797 311.255 139.584 310.522 139.584ZM328.809 149.176C327.68 149.176 326.683 148.941 325.817 148.472C324.967 148.003 324.307 147.335 323.837 146.47C323.383 145.59 323.155 144.563 323.155 143.39C323.155 142.217 323.383 141.197 323.837 140.332C324.307 139.452 324.967 138.777 325.817 138.308C326.683 137.839 327.68 137.604 328.809 137.604C329.924 137.604 330.907 137.839 331.757 138.308C332.608 138.777 333.261 139.452 333.715 140.332C334.185 141.197 334.419 142.217 334.419 143.39C334.419 144.563 334.185 145.59 333.715 146.47C333.261 147.335 332.608 148.003 331.757 148.472C330.907 148.941 329.924 149.176 328.809 149.176ZM328.787 147.02C329.726 147.02 330.437 146.719 330.921 146.118C331.42 145.502 331.669 144.593 331.669 143.39C331.669 142.202 331.42 141.3 330.921 140.684C330.423 140.053 329.719 139.738 328.809 139.738C327.885 139.738 327.174 140.053 326.675 140.684C326.177 141.3 325.927 142.202 325.927 143.39C325.927 144.593 326.169 145.502 326.653 146.118C327.152 146.719 327.863 147.02 328.787 147.02ZM341.984 134.986C340.796 134.986 340.202 135.639 340.202 136.944V137.89H342.688V139.958H340.202V149H337.452V139.958H335.34V137.89H337.452V136.812C337.452 135.492 337.782 134.48 338.442 133.776C339.117 133.057 340.078 132.698 341.324 132.698C342.014 132.698 342.593 132.786 343.062 132.962V135.14C342.652 135.037 342.292 134.986 341.984 134.986ZM361.446 145.326H353.79L352.206 149H349.346L356.43 133.336H358.74L365.846 149H363.008L361.446 145.326ZM360.5 143.126L357.618 136.416L354.736 143.126H360.5ZM372.38 149.176C371.221 149.176 370.216 148.941 369.366 148.472C368.515 148.003 367.862 147.343 367.408 146.492C366.953 145.627 366.726 144.615 366.726 143.456C366.726 142.297 366.96 141.278 367.43 140.398C367.914 139.518 368.588 138.836 369.454 138.352C370.334 137.853 371.346 137.604 372.49 137.604C373.282 137.604 374.044 137.729 374.778 137.978C375.526 138.227 376.12 138.572 376.56 139.012L375.79 140.948C375.32 140.567 374.822 140.281 374.294 140.09C373.766 139.885 373.245 139.782 372.732 139.782C371.734 139.782 370.957 140.097 370.4 140.728C369.842 141.344 369.564 142.239 369.564 143.412C369.564 144.585 369.835 145.48 370.378 146.096C370.935 146.712 371.72 147.02 372.732 147.02C373.245 147.02 373.766 146.917 374.294 146.712C374.822 146.507 375.32 146.213 375.79 145.832L376.56 147.768C376.09 148.208 375.482 148.553 374.734 148.802C373.986 149.051 373.201 149.176 372.38 149.176ZM381.969 139.958V144.93C381.969 146.235 382.577 146.888 383.795 146.888C384.132 146.888 384.499 146.829 384.895 146.712V148.89C384.411 149.066 383.824 149.154 383.135 149.154C381.873 149.154 380.905 148.802 380.231 148.098C379.556 147.394 379.219 146.382 379.219 145.062V139.958H377.085V137.89H379.219V135.184L381.969 134.26V137.89H384.917V139.958H381.969ZM386.807 137.89H389.535V149H386.807V137.89ZM389.689 132.852V135.558H386.631V132.852H389.689ZM397.581 149.176C396.452 149.176 395.454 148.941 394.589 148.472C393.738 148.003 393.078 147.335 392.609 146.47C392.154 145.59 391.927 144.563 391.927 143.39C391.927 142.217 392.154 141.197 392.609 140.332C393.078 139.452 393.738 138.777 394.589 138.308C395.454 137.839 396.452 137.604 397.581 137.604C398.696 137.604 399.678 137.839 400.529 138.308C401.38 138.777 402.032 139.452 402.487 140.332C402.956 141.197 403.191 142.217 403.191 143.39C403.191 144.563 402.956 145.59 402.487 146.47C402.032 147.335 401.38 148.003 400.529 148.472C399.678 148.941 398.696 149.176 397.581 149.176ZM397.559 147.02C398.498 147.02 399.209 146.719 399.693 146.118C400.192 145.502 400.441 144.593 400.441 143.39C400.441 142.202 400.192 141.3 399.693 140.684C399.194 140.053 398.49 139.738 397.581 139.738C396.657 139.738 395.946 140.053 395.447 140.684C394.948 141.3 394.699 142.202 394.699 143.39C394.699 144.593 394.941 145.502 395.425 146.118C395.924 146.719 396.635 147.02 397.559 147.02ZM411.92 137.604C414.575 137.604 415.902 139.129 415.902 142.18V149H413.152V142.312C413.152 141.432 412.984 140.794 412.646 140.398C412.309 139.987 411.788 139.782 411.084 139.782C410.248 139.782 409.574 140.053 409.06 140.596C408.547 141.124 408.29 141.828 408.29 142.708V149H405.562V141.036C405.562 139.863 405.504 138.814 405.386 137.89H407.96L408.158 139.716C408.54 139.041 409.053 138.521 409.698 138.154C410.358 137.787 411.099 137.604 411.92 137.604Z" fill="white"/>
<path d="M57.54 70.63C53.8067 70.63 50.12 70.14 46.48 69.16C42.84 68.18 39.8767 66.85 37.59 65.17L41.72 55.86C44.1467 57.4 46.7133 58.59 49.42 59.43C52.1733 60.2233 54.9267 60.62 57.68 60.62C60.48 60.62 62.6267 60.2467 64.12 59.5C65.6133 58.7067 66.36 57.61 66.36 56.21C66.36 54.95 65.6833 53.9233 64.33 53.13C62.9767 52.29 60.4333 51.4733 56.7 50.68C51.9867 49.7467 48.3233 48.6033 45.71 47.25C43.0967 45.85 41.2533 44.2167 40.18 42.35C39.1533 40.4833 38.64 38.22 38.64 35.56C38.64 32.5267 39.5033 29.7967 41.23 27.37C42.9567 24.8967 45.3833 22.9833 48.51 21.63C51.6367 20.23 55.2067 19.53 59.22 19.53C62.8133 19.53 66.29 20.0433 69.65 21.07C73.0567 22.05 75.7167 23.3567 77.63 24.99L73.57 34.3C71.3767 32.76 69.0667 31.5933 66.64 30.8C64.2133 29.96 61.7867 29.54 59.36 29.54C56.98 29.54 55.0667 30.0067 53.62 30.94C52.1733 31.8267 51.45 33.04 51.45 34.58C51.45 35.42 51.7067 36.12 52.22 36.68C52.7333 37.24 53.69 37.8 55.09 38.36C56.49 38.8733 58.59 39.4333 61.39 40.04C65.9167 41.02 69.4633 42.21 72.03 43.61C74.6433 44.9633 76.4867 46.5733 77.56 48.44C78.6333 50.26 79.17 52.4533 79.17 55.02C79.17 59.8733 77.28 63.7 73.5 66.5C69.72 69.2533 64.4 70.63 57.54 70.63ZM86.5113 20.16H106.881C112.388 20.16 117.125 21.1633 121.091 23.17C125.105 25.13 128.161 27.9767 130.261 31.71C132.408 35.4433 133.481 39.8767 133.481 45.01C133.481 50.19 132.431 54.67 130.331 58.45C128.231 62.1833 125.175 65.0533 121.161 67.06C117.195 69.02 112.435 70 106.881 70H86.5113V20.16ZM105.971 59.5C110.825 59.5 114.441 58.31 116.821 55.93C119.248 53.5033 120.461 49.8633 120.461 45.01C120.461 35.4433 115.631 30.66 105.971 30.66H99.6713V59.5H105.971ZM185.439 41.86V66.85C182.779 68.0633 179.792 68.9967 176.479 69.65C173.212 70.3033 169.852 70.63 166.399 70.63C160.985 70.63 156.272 69.6033 152.259 67.55C148.292 65.4967 145.235 62.5567 143.089 58.73C140.942 54.8567 139.869 50.2833 139.869 45.01C139.869 39.8767 140.942 35.3967 143.089 31.57C145.235 27.6967 148.269 24.7333 152.189 22.68C156.109 20.58 160.682 19.53 165.909 19.53C169.502 19.53 172.885 19.9967 176.059 20.93C179.279 21.8633 181.892 23.1467 183.899 24.78L179.769 34.09C177.482 32.5967 175.265 31.5233 173.119 30.87C171.019 30.17 168.755 29.82 166.329 29.82C161.895 29.82 158.582 31.08 156.389 33.6C154.242 36.0733 153.169 39.8767 153.169 45.01C153.169 50.33 154.289 54.2733 156.529 56.84C158.815 59.4067 162.315 60.69 167.029 60.69C169.222 60.69 171.415 60.4567 173.609 59.99V50.75H164.929V41.86H185.439ZM214.07 20.16H227.23V70H214.07V20.16ZM280.808 20.16V70H271.078L248.468 41.72V70H236.218V20.16H245.808L268.418 48.3V20.16H280.808ZM289.812 20.16H310.182C315.689 20.16 320.425 21.1633 324.392 23.17C328.405 25.13 331.462 27.9767 333.562 31.71C335.709 35.4433 336.782 39.8767 336.782 45.01C336.782 50.19 335.732 54.67 333.632 58.45C331.532 62.1833 328.475 65.0533 324.462 67.06C320.495 69.02 315.735 70 310.182 70H289.812V20.16ZM309.272 59.5C314.125 59.5 317.742 58.31 320.122 55.93C322.549 53.5033 323.762 49.8633 323.762 45.01C323.762 35.4433 318.932 30.66 309.272 30.66H302.972V59.5H309.272ZM344.5 20.16H357.66V70H344.5V20.16ZM400.248 59.71H378.128L373.718 70H360.558L383.868 20.16H394.228L417.608 70H404.658L400.248 59.71ZM395.978 49.84L389.188 34.09L382.398 49.84H395.978Z" fill="white"/>
</svg>
