<svg fill="none" height="85" style="width: auto;height: 100px;" viewBox="0 0 277 85" width="277" xmlns="http://www.w3.org/2000/svg"><rect fill="white" height="45" rx="20" width="223" x="54" y="20"></rect><path class="text_ex" d="M107.491 36.048H117.802V38.589H110.683V42.117H117.361V44.679H110.683V48.459H117.802V51H107.491V36.048ZM130.73 51H126.992L124.409 47.745L121.826 51H118.109L122.603 45.519L118.382 40.353H122.12L124.409 43.314L126.698 40.353H130.457L126.236 45.519L130.73 51ZM138.052 40.08C138.962 40.08 139.774 40.318 140.488 40.794C141.202 41.256 141.755 41.914 142.147 42.768C142.553 43.622 142.756 44.595 142.756 45.687C142.756 46.779 142.56 47.745 142.168 48.585C141.776 49.411 141.223 50.048 140.509 50.496C139.795 50.944 138.976 51.168 138.052 51.168C137.31 51.168 136.645 51.014 136.057 50.706C135.469 50.398 135.021 49.971 134.713 49.425V55.536H131.542V43.398C131.542 42.264 131.486 41.249 131.374 40.353H134.356L134.566 42.117C134.846 41.487 135.294 40.99 135.91 40.626C136.54 40.262 137.254 40.08 138.052 40.08ZM137.149 48.753C137.933 48.753 138.535 48.494 138.955 47.976C139.375 47.444 139.585 46.681 139.585 45.687C139.585 44.693 139.368 43.916 138.934 43.356C138.514 42.796 137.919 42.516 137.149 42.516C136.365 42.516 135.756 42.789 135.322 43.335C134.902 43.867 134.692 44.637 134.692 45.645C134.692 46.653 134.902 47.423 135.322 47.955C135.756 48.487 136.365 48.753 137.149 48.753ZM144.79 35.544H147.961V51H144.79V35.544ZM155.634 51.168C154.5 51.168 153.506 50.944 152.652 50.496C151.812 50.048 151.161 49.404 150.699 48.564C150.251 47.724 150.027 46.744 150.027 45.624C150.027 44.504 150.251 43.524 150.699 42.684C151.161 41.844 151.812 41.2 152.652 40.752C153.506 40.304 154.5 40.08 155.634 40.08C156.754 40.08 157.734 40.304 158.574 40.752C159.414 41.2 160.058 41.844 160.506 42.684C160.968 43.524 161.199 44.504 161.199 45.624C161.199 46.744 160.968 47.724 160.506 48.564C160.058 49.404 159.414 50.048 158.574 50.496C157.734 50.944 156.754 51.168 155.634 51.168ZM155.634 48.753C156.418 48.753 157.013 48.494 157.419 47.976C157.839 47.458 158.049 46.674 158.049 45.624C158.049 44.588 157.839 43.811 157.419 43.293C157.013 42.761 156.418 42.495 155.634 42.495C154.836 42.495 154.227 42.761 153.807 43.293C153.387 43.811 153.177 44.588 153.177 45.624C153.177 47.71 153.996 48.753 155.634 48.753ZM169.421 40.101C169.869 40.101 170.247 40.171 170.555 40.311L170.534 43.209C170.016 42.971 169.498 42.852 168.98 42.852C168.14 42.852 167.496 43.083 167.048 43.545C166.614 43.993 166.397 44.623 166.397 45.435V51H163.226V43.398C163.226 42.264 163.17 41.249 163.058 40.353H166.04L166.25 42.18C166.516 41.508 166.929 40.997 167.489 40.647C168.063 40.283 168.707 40.101 169.421 40.101ZM181.19 45.939H174.176C174.232 46.933 174.491 47.661 174.953 48.123C175.415 48.571 176.101 48.795 177.011 48.795C177.557 48.795 178.103 48.704 178.649 48.522C179.195 48.34 179.699 48.074 180.161 47.724L181.001 49.866C180.497 50.272 179.867 50.594 179.111 50.832C178.369 51.056 177.62 51.168 176.864 51.168C175.072 51.168 173.665 50.678 172.643 49.698C171.621 48.704 171.11 47.353 171.11 45.645C171.11 44.567 171.327 43.608 171.761 42.768C172.209 41.914 172.832 41.256 173.63 40.794C174.428 40.318 175.331 40.08 176.339 40.08C177.837 40.08 179.02 40.57 179.888 41.55C180.756 42.516 181.19 43.825 181.19 45.477V45.939ZM176.423 42.306C175.821 42.306 175.331 42.481 174.953 42.831C174.589 43.181 174.351 43.692 174.239 44.364H178.46C178.292 42.992 177.613 42.306 176.423 42.306ZM189.297 36.048H192.573V51H189.297V36.048ZM201.935 40.08C204.455 40.08 205.715 41.571 205.715 44.553V51H202.544V44.7C202.544 43.958 202.404 43.419 202.124 43.083C201.858 42.733 201.431 42.558 200.843 42.558C200.143 42.558 199.583 42.782 199.163 43.23C198.743 43.678 198.533 44.28 198.533 45.036V51H195.362V43.398C195.362 42.264 195.306 41.249 195.194 40.353H198.176L198.386 42.033C198.764 41.403 199.254 40.92 199.856 40.584C200.472 40.248 201.165 40.08 201.935 40.08ZM218.909 35.544V51H215.78V49.425C215.458 49.971 215.003 50.398 214.415 50.706C213.827 51.014 213.162 51.168 212.42 51.168C211.51 51.168 210.698 50.937 209.984 50.475C209.27 49.999 208.71 49.341 208.304 48.501C207.912 47.647 207.716 46.674 207.716 45.582C207.716 44.49 207.912 43.531 208.304 42.705C208.71 41.865 209.263 41.221 209.963 40.773C210.677 40.311 211.496 40.08 212.42 40.08C213.134 40.08 213.785 40.234 214.373 40.542C214.961 40.836 215.416 41.249 215.738 41.781V35.544H218.909ZM213.344 48.753C214.128 48.753 214.73 48.487 215.15 47.955C215.57 47.409 215.78 46.632 215.78 45.624C215.78 44.63 215.563 43.867 215.129 43.335C214.709 42.789 214.114 42.516 213.344 42.516C212.56 42.516 211.951 42.782 211.517 43.314C211.083 43.846 210.866 44.602 210.866 45.582C210.866 46.59 211.083 47.374 211.517 47.934C211.951 48.48 212.56 48.753 213.344 48.753ZM231.024 45.939H224.01C224.066 46.933 224.325 47.661 224.787 48.123C225.249 48.571 225.935 48.795 226.845 48.795C227.391 48.795 227.937 48.704 228.483 48.522C229.029 48.34 229.533 48.074 229.995 47.724L230.835 49.866C230.331 50.272 229.701 50.594 228.945 50.832C228.203 51.056 227.454 51.168 226.698 51.168C224.906 51.168 223.499 50.678 222.477 49.698C221.455 48.704 220.944 47.353 220.944 45.645C220.944 44.567 221.161 43.608 221.595 42.768C222.043 41.914 222.666 41.256 223.464 40.794C224.262 40.318 225.165 40.08 226.173 40.08C227.671 40.08 228.854 40.57 229.722 41.55C230.59 42.516 231.024 43.825 231.024 45.477V45.939ZM226.257 42.306C225.655 42.306 225.165 42.481 224.787 42.831C224.423 43.181 224.185 43.692 224.073 44.364H228.294C228.126 42.992 227.447 42.306 226.257 42.306ZM243.872 51H240.134L237.551 47.745L234.968 51H231.251L235.745 45.519L231.524 40.353H235.262L237.551 43.314L239.84 40.353H243.599L239.378 45.519L243.872 51Z" fill="#C6273A"></path><circle cx="42.5" cy="42.5" fill="white" r="42.5" style="transform: scale(0.9);
            transform-origin: center;"></circle><g filter="url(#filter0_d)" style="transform: scale(0.9);
            transform-origin: center;"><path d="M26.2569 33.6894C27.0901 32.3235 28.0691 31.0599 29.1957 29.9422L19.5415 19.4904C17.1409 21.7761 15.084 24.4494 13.4647 27.3645L26.2569 33.6894Z" fill="#61BB4A"></path><path d="M49.7806 26.2939C51.2508 26.9768 52.5751 27.8009 53.8021 28.8245L63.4563 18.3695C60.9049 16.1811 58.0635 14.3838 54.9254 13.0714L49.7806 26.2939Z" fill="#DFB442"></path><path d="M71.8826 29.4086L59.0936 35.7303C59.6788 37.1384 60.1197 38.647 60.3677 40.2027L74.5782 38.8887C74.1357 35.534 73.2069 32.374 71.8826 29.4086Z" fill="#C6273A"></path><path d="M58.1585 33.9278L70.9508 27.6078C69.3866 24.6911 67.3734 22.0648 64.9712 19.7321L55.3657 30.1871C56.4469 31.3047 57.3757 32.5652 58.1585 33.9278Z" fill="#4FA547"></path><path d="M23.7085 42.9228C23.7085 42.6341 23.7085 42.3421 23.7085 42.0485L9.49308 40.7848C9.49308 41.5132 9.44446 42.1928 9.44446 42.9245C9.44446 45.6465 9.78809 48.2712 10.4235 50.7515L24.1445 46.8631C23.856 45.5978 23.7085 44.2855 23.7085 42.9228Z" fill="#3F824E"></path><path d="M56.3968 54.4957C55.3675 55.7107 54.2378 56.7798 52.9183 57.7498L60.415 69.8092C63.2095 67.9615 65.6587 65.6288 67.7642 63.0512L56.3968 54.4957Z" fill="#FAC12C"></path><path d="M60.562 42.9231C60.562 44.2387 60.4161 45.5494 60.1195 46.8115L73.8405 50.7031C74.4791 48.2228 74.8212 45.5981 74.8212 42.9231C74.8212 42.2434 74.8212 41.6108 74.7725 40.9294L60.562 42.2434C60.562 42.4867 60.562 42.6798 60.562 42.9231Z" fill="#F0513C"></path><path d="M28.1172 54.7862L16.7482 63.3465C18.8554 65.9193 21.3532 68.1595 24.1476 70.0056L31.6443 57.9462C30.3703 57.0735 29.1465 56.0061 28.1172 54.7862Z" fill="#F99D3B"></path><path d="M23.9538 40.0045C24.2002 38.4002 24.6881 36.8932 25.3251 35.4851L12.5831 29.1635C11.1616 32.1321 10.181 35.3862 9.7887 38.7425L23.9538 40.0045Z" fill="#1298D5"></path><path d="M58.7002 70.8814L51.2018 58.8253C49.8322 59.6023 48.3588 60.1831 46.84 60.5708L49.4869 74.4762C52.7693 73.7997 55.8555 72.5328 58.7002 70.8814Z" fill="#A01C4A"></path><path d="M59.5826 48.7563C59.0915 50.2179 58.4042 51.5806 57.571 52.8443L68.9417 61.3494C70.8042 58.7263 72.2759 55.8064 73.255 52.6496L59.5826 48.7563Z" fill="#16C1E1"></path><path d="M44.7819 61.0121C43.9017 61.1565 43.0167 61.2084 42.1365 61.2084C41.4006 61.2084 40.7166 61.1565 39.9791 61.064L37.3322 74.9678C38.9012 75.2079 40.5172 75.3101 42.1365 75.3101C43.9503 75.3101 45.7155 75.1624 47.4304 74.8704L44.7819 61.0121Z" fill="#F3723B"></path><path d="M43.312 24.6426C44.8794 24.7399 46.4469 25.0319 47.8684 25.5185L53.0132 12.3399C49.9772 11.2709 46.6916 10.6382 43.312 10.4938V24.6426V24.6426Z" fill="#EE3449"></path><path d="M37.9688 60.7218C36.3495 60.3324 34.8307 59.7939 33.4578 59.0168L25.9611 71.0794C28.8511 72.7324 31.9892 73.9475 35.3704 74.6255L37.9688 60.7218Z" fill="#E02570"></path><path d="M36.5981 25.4683C38.0666 24.9832 39.6357 24.7415 41.2533 24.6442V10.4955C37.8219 10.5928 34.5395 11.2238 31.4501 12.2442L36.5981 25.4683Z" fill="#164E6D"></path><path d="M26.8453 53.1332C25.9636 51.8224 25.1791 50.3625 24.6879 48.8052L10.9669 52.6952C11.9946 55.9558 13.5652 58.9666 15.4747 61.6935L26.8453 53.1332Z" fill="#C09537"></path><path d="M30.7156 28.5813C31.941 27.6567 33.2653 26.831 34.6852 26.1983L29.4918 13.0229C26.4023 14.2866 23.6111 16.0369 21.0598 18.1279L30.7156 28.5813Z" fill="#0B6FA0"></path></g><defs><filter color-interpolation-filters="sRGB" filterUnits="userSpaceOnUse" height="66.8162" id="filter0_d" width="67.3767" x="8.44446" y="10.4938"><feFlood flood-opacity="0" result="BackgroundImageFix"></feFlood><feColorMatrix in="SourceAlpha" type="matrix" values="0 0 0 0 0 0 0 0 0 0 0 0 0 0 0 0 0 0 127 0"></feColorMatrix><feOffset dy="1"></feOffset><feGaussianBlur stdDeviation="0.5"></feGaussianBlur><feColorMatrix type="matrix" values="0 0 0 0 0 0 0 0 0 0 0 0 0 0 0 0 0 0 0.25 0"></feColorMatrix><feBlend in2="BackgroundImageFix" mode="normal" result="effect1_dropShadow"></feBlend><feBlend in="SourceGraphic" in2="effect1_dropShadow" mode="normal" result="shape"></feBlend></filter></defs></svg>